<?xml version="1.0" encoding="utf-8" standalone="no"?>
<!DOCTYPE svg PUBLIC "-//W3C//DTD SVG 1.1//EN"
  "http://www.w3.org/Graphics/SVG/1.1/DTD/svg11.dtd">
<svg xmlns:xlink="http://www.w3.org/1999/xlink" width="1142.613906pt" height="422.71125pt" viewBox="0 0 1142.613906 422.71125" xmlns="http://www.w3.org/2000/svg" version="1.1">
 <metadata>
  <rdf:RDF xmlns:dc="http://purl.org/dc/elements/1.1/" xmlns:cc="http://creativecommons.org/ns#" xmlns:rdf="http://www.w3.org/1999/02/22-rdf-syntax-ns#">
   <cc:Work>
    <dc:type rdf:resource="http://purl.org/dc/dcmitype/StillImage"/>
    <dc:date>2026-06-16T09:53:10.259886</dc:date>
    <dc:format>image/svg+xml</dc:format>
    <dc:creator>
     <cc:Agent>
      <dc:title>Matplotlib v3.10.9, https://matplotlib.org/</dc:title>
     </cc:Agent>
    </dc:creator>
   </cc:Work>
  </rdf:RDF>
 </metadata>
 <defs>
  <style type="text/css">*{stroke-linejoin: round; stroke-linecap: butt}</style>
 </defs>
 <g id="figure_1">
  <g id="patch_1">
   <path d="M 0 422.71125 
L 1142.613906 422.71125 
L 1142.613906 0 
L 0 0 
z
" style="fill: #ffffff"/>
  </g>
  <g id="axes_1">
   <g id="patch_2">
    <path d="M 36.993906 387.891562 
L 1135.413906 387.891562 
L 1135.413906 23.391562 
L 36.993906 23.391562 
z
" style="fill: #ffffff"/>
   </g>
   <g id="matplotlib.axis_1">
    <g id="xtick_1">
     <g id="line2d_1">
      <path d="M 86.922088 387.891562 
L 86.922088 23.391562 
" clip-path="url(#pc941f2fe99)" style="fill: none; stroke: #e2e8f0; stroke-width: 0.5; stroke-linecap: round"/>
     </g>
     <g id="line2d_2"/>
     <g id="text_1">
      <!-- 2016 -->
      <g style="fill: #262626" transform="translate(74.688026 399.265156) scale(0.11 -0.11)">
       <defs>
        <path id="ArialMT-32" d="M 3222 541 
L 3222 0 
L 194 0 
Q 188 203 259 391 
Q 375 700 629 1000 
Q 884 1300 1366 1694 
Q 2113 2306 2375 2664 
Q 2638 3022 2638 3341 
Q 2638 3675 2398 3904 
Q 2159 4134 1775 4134 
Q 1369 4134 1125 3890 
Q 881 3647 878 3216 
L 300 3275 
Q 359 3922 746 4261 
Q 1134 4600 1788 4600 
Q 2447 4600 2831 4234 
Q 3216 3869 3216 3328 
Q 3216 3053 3103 2787 
Q 2991 2522 2730 2228 
Q 2469 1934 1863 1422 
Q 1356 997 1212 845 
Q 1069 694 975 541 
L 3222 541 
z
" transform="scale(0.015625)"/>
        <path id="ArialMT-30" d="M 266 2259 
Q 266 3072 433 3567 
Q 600 4063 929 4331 
Q 1259 4600 1759 4600 
Q 2128 4600 2406 4451 
Q 2684 4303 2865 4023 
Q 3047 3744 3150 3342 
Q 3253 2941 3253 2259 
Q 3253 1453 3087 958 
Q 2922 463 2592 192 
Q 2263 -78 1759 -78 
Q 1097 -78 719 397 
Q 266 969 266 2259 
z
M 844 2259 
Q 844 1131 1108 757 
Q 1372 384 1759 384 
Q 2147 384 2411 759 
Q 2675 1134 2675 2259 
Q 2675 3391 2411 3762 
Q 2147 4134 1753 4134 
Q 1366 4134 1134 3806 
Q 844 3388 844 2259 
z
" transform="scale(0.015625)"/>
        <path id="ArialMT-31" d="M 2384 0 
L 1822 0 
L 1822 3584 
Q 1619 3391 1289 3197 
Q 959 3003 697 2906 
L 697 3450 
Q 1169 3672 1522 3987 
Q 1875 4303 2022 4600 
L 2384 4600 
L 2384 0 
z
" transform="scale(0.015625)"/>
        <path id="ArialMT-36" d="M 3184 3459 
L 2625 3416 
Q 2550 3747 2413 3897 
Q 2184 4138 1850 4138 
Q 1581 4138 1378 3988 
Q 1113 3794 959 3422 
Q 806 3050 800 2363 
Q 1003 2672 1297 2822 
Q 1591 2972 1913 2972 
Q 2475 2972 2870 2558 
Q 3266 2144 3266 1488 
Q 3266 1056 3080 686 
Q 2894 316 2569 119 
Q 2244 -78 1831 -78 
Q 1128 -78 684 439 
Q 241 956 241 2144 
Q 241 3472 731 4075 
Q 1159 4600 1884 4600 
Q 2425 4600 2770 4297 
Q 3116 3994 3184 3459 
z
M 888 1484 
Q 888 1194 1011 928 
Q 1134 663 1356 523 
Q 1578 384 1822 384 
Q 2178 384 2434 671 
Q 2691 959 2691 1453 
Q 2691 1928 2437 2201 
Q 2184 2475 1800 2475 
Q 1419 2475 1153 2201 
Q 888 1928 888 1484 
z
" transform="scale(0.015625)"/>
       </defs>
       <use xlink:href="#ArialMT-32"/>
       <use xlink:href="#ArialMT-30" transform="translate(55.615234 0)"/>
       <use xlink:href="#ArialMT-31" transform="translate(111.230469 0)"/>
       <use xlink:href="#ArialMT-36" transform="translate(166.845703 0)"/>
      </g>
     </g>
    </g>
    <g id="xtick_2">
     <g id="line2d_3">
      <path d="M 278.812209 387.891562 
L 278.812209 23.391562 
" clip-path="url(#pc941f2fe99)" style="fill: none; stroke: #e2e8f0; stroke-width: 0.5; stroke-linecap: round"/>
     </g>
     <g id="line2d_4"/>
     <g id="text_2">
      <!-- 2018 -->
      <g style="fill: #262626" transform="translate(266.578146 399.265156) scale(0.11 -0.11)">
       <defs>
        <path id="ArialMT-38" d="M 1131 2484 
Q 781 2613 612 2850 
Q 444 3088 444 3419 
Q 444 3919 803 4259 
Q 1163 4600 1759 4600 
Q 2359 4600 2725 4251 
Q 3091 3903 3091 3403 
Q 3091 3084 2923 2848 
Q 2756 2613 2416 2484 
Q 2838 2347 3058 2040 
Q 3278 1734 3278 1309 
Q 3278 722 2862 322 
Q 2447 -78 1769 -78 
Q 1091 -78 675 323 
Q 259 725 259 1325 
Q 259 1772 486 2073 
Q 713 2375 1131 2484 
z
M 1019 3438 
Q 1019 3113 1228 2906 
Q 1438 2700 1772 2700 
Q 2097 2700 2305 2904 
Q 2513 3109 2513 3406 
Q 2513 3716 2298 3927 
Q 2084 4138 1766 4138 
Q 1444 4138 1231 3931 
Q 1019 3725 1019 3438 
z
M 838 1322 
Q 838 1081 952 856 
Q 1066 631 1291 507 
Q 1516 384 1775 384 
Q 2178 384 2440 643 
Q 2703 903 2703 1303 
Q 2703 1709 2433 1975 
Q 2163 2241 1756 2241 
Q 1359 2241 1098 1978 
Q 838 1716 838 1322 
z
" transform="scale(0.015625)"/>
       </defs>
       <use xlink:href="#ArialMT-32"/>
       <use xlink:href="#ArialMT-30" transform="translate(55.615234 0)"/>
       <use xlink:href="#ArialMT-31" transform="translate(111.230469 0)"/>
       <use xlink:href="#ArialMT-38" transform="translate(166.845703 0)"/>
      </g>
     </g>
    </g>
    <g id="xtick_3">
     <g id="line2d_5">
      <path d="M 470.439825 387.891562 
L 470.439825 23.391562 
" clip-path="url(#pc941f2fe99)" style="fill: none; stroke: #e2e8f0; stroke-width: 0.5; stroke-linecap: round"/>
     </g>
     <g id="line2d_6"/>
     <g id="text_3">
      <!-- 2020 -->
      <g style="fill: #262626" transform="translate(458.205763 399.265156) scale(0.11 -0.11)">
       <use xlink:href="#ArialMT-32"/>
       <use xlink:href="#ArialMT-30" transform="translate(55.615234 0)"/>
       <use xlink:href="#ArialMT-32" transform="translate(111.230469 0)"/>
       <use xlink:href="#ArialMT-30" transform="translate(166.845703 0)"/>
      </g>
     </g>
    </g>
    <g id="xtick_4">
     <g id="line2d_7">
      <path d="M 662.329946 387.891562 
L 662.329946 23.391562 
" clip-path="url(#pc941f2fe99)" style="fill: none; stroke: #e2e8f0; stroke-width: 0.5; stroke-linecap: round"/>
     </g>
     <g id="line2d_8"/>
     <g id="text_4">
      <!-- 2022 -->
      <g style="fill: #262626" transform="translate(650.095883 399.265156) scale(0.11 -0.11)">
       <use xlink:href="#ArialMT-32"/>
       <use xlink:href="#ArialMT-30" transform="translate(55.615234 0)"/>
       <use xlink:href="#ArialMT-32" transform="translate(111.230469 0)"/>
       <use xlink:href="#ArialMT-32" transform="translate(166.845703 0)"/>
      </g>
     </g>
    </g>
    <g id="xtick_5">
     <g id="line2d_9">
      <path d="M 853.957563 387.891562 
L 853.957563 23.391562 
" clip-path="url(#pc941f2fe99)" style="fill: none; stroke: #e2e8f0; stroke-width: 0.5; stroke-linecap: round"/>
     </g>
     <g id="line2d_10"/>
     <g id="text_5">
      <!-- 2024 -->
      <g style="fill: #262626" transform="translate(841.7235 399.265156) scale(0.11 -0.11)">
       <defs>
        <path id="ArialMT-34" d="M 2069 0 
L 2069 1097 
L 81 1097 
L 81 1613 
L 2172 4581 
L 2631 4581 
L 2631 1613 
L 3250 1613 
L 3250 1097 
L 2631 1097 
L 2631 0 
L 2069 0 
z
M 2069 1613 
L 2069 3678 
L 634 1613 
L 2069 1613 
z
" transform="scale(0.015625)"/>
       </defs>
       <use xlink:href="#ArialMT-32"/>
       <use xlink:href="#ArialMT-30" transform="translate(55.615234 0)"/>
       <use xlink:href="#ArialMT-32" transform="translate(111.230469 0)"/>
       <use xlink:href="#ArialMT-34" transform="translate(166.845703 0)"/>
      </g>
     </g>
    </g>
    <g id="xtick_6">
     <g id="line2d_11">
      <path d="M 1045.847683 387.891562 
L 1045.847683 23.391562 
" clip-path="url(#pc941f2fe99)" style="fill: none; stroke: #e2e8f0; stroke-width: 0.5; stroke-linecap: round"/>
     </g>
     <g id="line2d_12"/>
     <g id="text_6">
      <!-- 2026 -->
      <g style="fill: #262626" transform="translate(1033.613621 399.265156) scale(0.11 -0.11)">
       <use xlink:href="#ArialMT-32"/>
       <use xlink:href="#ArialMT-30" transform="translate(55.615234 0)"/>
       <use xlink:href="#ArialMT-32" transform="translate(111.230469 0)"/>
       <use xlink:href="#ArialMT-36" transform="translate(166.845703 0)"/>
      </g>
     </g>
    </g>
    <g id="text_7">
     <!-- Date -->
     <g style="fill: #262626" transform="translate(574.586875 413.325) scale(0.11 -0.11)">
      <defs>
       <path id="ArialMT-44" d="M 494 0 
L 494 4581 
L 2072 4581 
Q 2606 4581 2888 4516 
Q 3281 4425 3559 4188 
Q 3922 3881 4101 3404 
Q 4281 2928 4281 2316 
Q 4281 1794 4159 1391 
Q 4038 988 3847 723 
Q 3656 459 3429 307 
Q 3203 156 2883 78 
Q 2563 0 2147 0 
L 494 0 
z
M 1100 541 
L 2078 541 
Q 2531 541 2789 625 
Q 3047 709 3200 863 
Q 3416 1078 3536 1442 
Q 3656 1806 3656 2325 
Q 3656 3044 3420 3430 
Q 3184 3816 2847 3947 
Q 2603 4041 2063 4041 
L 1100 4041 
L 1100 541 
z
" transform="scale(0.015625)"/>
       <path id="ArialMT-61" d="M 2588 409 
Q 2275 144 1986 34 
Q 1697 -75 1366 -75 
Q 819 -75 525 192 
Q 231 459 231 875 
Q 231 1119 342 1320 
Q 453 1522 633 1644 
Q 813 1766 1038 1828 
Q 1203 1872 1538 1913 
Q 2219 1994 2541 2106 
Q 2544 2222 2544 2253 
Q 2544 2597 2384 2738 
Q 2169 2928 1744 2928 
Q 1347 2928 1158 2789 
Q 969 2650 878 2297 
L 328 2372 
Q 403 2725 575 2942 
Q 747 3159 1072 3276 
Q 1397 3394 1825 3394 
Q 2250 3394 2515 3294 
Q 2781 3194 2906 3042 
Q 3031 2891 3081 2659 
Q 3109 2516 3109 2141 
L 3109 1391 
Q 3109 606 3145 398 
Q 3181 191 3288 0 
L 2700 0 
Q 2613 175 2588 409 
z
M 2541 1666 
Q 2234 1541 1622 1453 
Q 1275 1403 1131 1340 
Q 988 1278 909 1158 
Q 831 1038 831 891 
Q 831 666 1001 516 
Q 1172 366 1500 366 
Q 1825 366 2078 508 
Q 2331 650 2450 897 
Q 2541 1088 2541 1459 
L 2541 1666 
z
" transform="scale(0.015625)"/>
       <path id="ArialMT-74" d="M 1650 503 
L 1731 6 
Q 1494 -44 1306 -44 
Q 1000 -44 831 53 
Q 663 150 594 308 
Q 525 466 525 972 
L 525 2881 
L 113 2881 
L 113 3319 
L 525 3319 
L 525 4141 
L 1084 4478 
L 1084 3319 
L 1650 3319 
L 1650 2881 
L 1084 2881 
L 1084 941 
Q 1084 700 1114 631 
Q 1144 563 1211 522 
Q 1278 481 1403 481 
Q 1497 481 1650 503 
z
" transform="scale(0.015625)"/>
       <path id="ArialMT-65" d="M 2694 1069 
L 3275 997 
Q 3138 488 2766 206 
Q 2394 -75 1816 -75 
Q 1088 -75 661 373 
Q 234 822 234 1631 
Q 234 2469 665 2931 
Q 1097 3394 1784 3394 
Q 2450 3394 2872 2941 
Q 3294 2488 3294 1666 
Q 3294 1616 3291 1516 
L 816 1516 
Q 847 969 1125 678 
Q 1403 388 1819 388 
Q 2128 388 2347 550 
Q 2566 713 2694 1069 
z
M 847 1978 
L 2700 1978 
Q 2663 2397 2488 2606 
Q 2219 2931 1791 2931 
Q 1403 2931 1139 2672 
Q 875 2413 847 1978 
z
" transform="scale(0.015625)"/>
      </defs>
      <use xlink:href="#ArialMT-44"/>
      <use xlink:href="#ArialMT-61" transform="translate(72.216797 0)"/>
      <use xlink:href="#ArialMT-74" transform="translate(127.832031 0)"/>
      <use xlink:href="#ArialMT-65" transform="translate(155.615234 0)"/>
     </g>
    </g>
   </g>
   <g id="matplotlib.axis_2">
    <g id="ytick_1">
     <g id="line2d_13">
      <path d="M 36.993906 337.511915 
L 1135.413906 337.511915 
" clip-path="url(#pc941f2fe99)" style="fill: none; stroke: #e2e8f0; stroke-width: 0.5; stroke-linecap: round"/>
     </g>
     <g id="line2d_14"/>
     <g id="text_8">
      <!-- 2 -->
      <g style="fill: #262626" transform="translate(27.376875 341.448712) scale(0.11 -0.11)">
       <use xlink:href="#ArialMT-32"/>
      </g>
     </g>
    </g>
    <g id="ytick_2">
     <g id="line2d_15">
      <path d="M 36.993906 269.888983 
L 1135.413906 269.888983 
" clip-path="url(#pc941f2fe99)" style="fill: none; stroke: #e2e8f0; stroke-width: 0.5; stroke-linecap: round"/>
     </g>
     <g id="line2d_16"/>
     <g id="text_9">
      <!-- 4 -->
      <g style="fill: #262626" transform="translate(27.376875 273.82578) scale(0.11 -0.11)">
       <use xlink:href="#ArialMT-34"/>
      </g>
     </g>
    </g>
    <g id="ytick_3">
     <g id="line2d_17">
      <path d="M 36.993906 202.266051 
L 1135.413906 202.266051 
" clip-path="url(#pc941f2fe99)" style="fill: none; stroke: #e2e8f0; stroke-width: 0.5; stroke-linecap: round"/>
     </g>
     <g id="line2d_18"/>
     <g id="text_10">
      <!-- 6 -->
      <g style="fill: #262626" transform="translate(27.376875 206.202848) scale(0.11 -0.11)">
       <use xlink:href="#ArialMT-36"/>
      </g>
     </g>
    </g>
    <g id="ytick_4">
     <g id="line2d_19">
      <path d="M 36.993906 134.643119 
L 1135.413906 134.643119 
" clip-path="url(#pc941f2fe99)" style="fill: none; stroke: #e2e8f0; stroke-width: 0.5; stroke-linecap: round"/>
     </g>
     <g id="line2d_20"/>
     <g id="text_11">
      <!-- 8 -->
      <g style="fill: #262626" transform="translate(27.376875 138.579916) scale(0.11 -0.11)">
       <use xlink:href="#ArialMT-38"/>
      </g>
     </g>
    </g>
    <g id="ytick_5">
     <g id="line2d_21">
      <path d="M 36.993906 67.020188 
L 1135.413906 67.020188 
" clip-path="url(#pc941f2fe99)" style="fill: none; stroke: #e2e8f0; stroke-width: 0.5; stroke-linecap: round"/>
     </g>
     <g id="line2d_22"/>
     <g id="text_12">
      <!-- 10 -->
      <g style="fill: #262626" transform="translate(21.259844 70.956984) scale(0.11 -0.11)">
       <use xlink:href="#ArialMT-31"/>
       <use xlink:href="#ArialMT-30" transform="translate(55.615234 0)"/>
      </g>
     </g>
    </g>
    <g id="text_13">
     <!-- PRs / Person / Month -->
     <g style="fill: #262626" transform="translate(15.073594 257.910469) rotate(-90) scale(0.11 -0.11)">
      <defs>
       <path id="ArialMT-50" d="M 494 0 
L 494 4581 
L 2222 4581 
Q 2678 4581 2919 4538 
Q 3256 4481 3484 4323 
Q 3713 4166 3852 3881 
Q 3991 3597 3991 3256 
Q 3991 2672 3619 2267 
Q 3247 1863 2275 1863 
L 1100 1863 
L 1100 0 
L 494 0 
z
M 1100 2403 
L 2284 2403 
Q 2872 2403 3119 2622 
Q 3366 2841 3366 3238 
Q 3366 3525 3220 3729 
Q 3075 3934 2838 4000 
Q 2684 4041 2272 4041 
L 1100 4041 
L 1100 2403 
z
" transform="scale(0.015625)"/>
       <path id="ArialMT-52" d="M 503 0 
L 503 4581 
L 2534 4581 
Q 3147 4581 3465 4457 
Q 3784 4334 3975 4021 
Q 4166 3709 4166 3331 
Q 4166 2844 3850 2509 
Q 3534 2175 2875 2084 
Q 3116 1969 3241 1856 
Q 3506 1613 3744 1247 
L 4541 0 
L 3778 0 
L 3172 953 
Q 2906 1366 2734 1584 
Q 2563 1803 2427 1890 
Q 2291 1978 2150 2013 
Q 2047 2034 1813 2034 
L 1109 2034 
L 1109 0 
L 503 0 
z
M 1109 2559 
L 2413 2559 
Q 2828 2559 3062 2645 
Q 3297 2731 3419 2920 
Q 3541 3109 3541 3331 
Q 3541 3656 3305 3865 
Q 3069 4075 2559 4075 
L 1109 4075 
L 1109 2559 
z
" transform="scale(0.015625)"/>
       <path id="ArialMT-73" d="M 197 991 
L 753 1078 
Q 800 744 1014 566 
Q 1228 388 1613 388 
Q 2000 388 2187 545 
Q 2375 703 2375 916 
Q 2375 1106 2209 1216 
Q 2094 1291 1634 1406 
Q 1016 1563 777 1677 
Q 538 1791 414 1992 
Q 291 2194 291 2438 
Q 291 2659 392 2848 
Q 494 3038 669 3163 
Q 800 3259 1026 3326 
Q 1253 3394 1513 3394 
Q 1903 3394 2198 3281 
Q 2494 3169 2634 2976 
Q 2775 2784 2828 2463 
L 2278 2388 
Q 2241 2644 2061 2787 
Q 1881 2931 1553 2931 
Q 1166 2931 1000 2803 
Q 834 2675 834 2503 
Q 834 2394 903 2306 
Q 972 2216 1119 2156 
Q 1203 2125 1616 2013 
Q 2213 1853 2448 1751 
Q 2684 1650 2818 1456 
Q 2953 1263 2953 975 
Q 2953 694 2789 445 
Q 2625 197 2315 61 
Q 2006 -75 1616 -75 
Q 969 -75 630 194 
Q 291 463 197 991 
z
" transform="scale(0.015625)"/>
       <path id="ArialMT-20" transform="scale(0.015625)"/>
       <path id="ArialMT-2f" d="M 0 -78 
L 1328 4659 
L 1778 4659 
L 453 -78 
L 0 -78 
z
" transform="scale(0.015625)"/>
       <path id="ArialMT-72" d="M 416 0 
L 416 3319 
L 922 3319 
L 922 2816 
Q 1116 3169 1280 3281 
Q 1444 3394 1641 3394 
Q 1925 3394 2219 3213 
L 2025 2691 
Q 1819 2813 1613 2813 
Q 1428 2813 1281 2702 
Q 1134 2591 1072 2394 
Q 978 2094 978 1738 
L 978 0 
L 416 0 
z
" transform="scale(0.015625)"/>
       <path id="ArialMT-6f" d="M 213 1659 
Q 213 2581 725 3025 
Q 1153 3394 1769 3394 
Q 2453 3394 2887 2945 
Q 3322 2497 3322 1706 
Q 3322 1066 3130 698 
Q 2938 331 2570 128 
Q 2203 -75 1769 -75 
Q 1072 -75 642 372 
Q 213 819 213 1659 
z
M 791 1659 
Q 791 1022 1069 705 
Q 1347 388 1769 388 
Q 2188 388 2466 706 
Q 2744 1025 2744 1678 
Q 2744 2294 2464 2611 
Q 2184 2928 1769 2928 
Q 1347 2928 1069 2612 
Q 791 2297 791 1659 
z
" transform="scale(0.015625)"/>
       <path id="ArialMT-6e" d="M 422 0 
L 422 3319 
L 928 3319 
L 928 2847 
Q 1294 3394 1984 3394 
Q 2284 3394 2536 3286 
Q 2788 3178 2913 3003 
Q 3038 2828 3088 2588 
Q 3119 2431 3119 2041 
L 3119 0 
L 2556 0 
L 2556 2019 
Q 2556 2363 2490 2533 
Q 2425 2703 2258 2804 
Q 2091 2906 1866 2906 
Q 1506 2906 1245 2678 
Q 984 2450 984 1813 
L 984 0 
L 422 0 
z
" transform="scale(0.015625)"/>
       <path id="ArialMT-4d" d="M 475 0 
L 475 4581 
L 1388 4581 
L 2472 1338 
Q 2622 884 2691 659 
Q 2769 909 2934 1394 
L 4031 4581 
L 4847 4581 
L 4847 0 
L 4263 0 
L 4263 3834 
L 2931 0 
L 2384 0 
L 1059 3900 
L 1059 0 
L 475 0 
z
" transform="scale(0.015625)"/>
       <path id="ArialMT-68" d="M 422 0 
L 422 4581 
L 984 4581 
L 984 2938 
Q 1378 3394 1978 3394 
Q 2347 3394 2619 3248 
Q 2891 3103 3008 2847 
Q 3125 2591 3125 2103 
L 3125 0 
L 2563 0 
L 2563 2103 
Q 2563 2525 2380 2717 
Q 2197 2909 1863 2909 
Q 1613 2909 1392 2779 
Q 1172 2650 1078 2428 
Q 984 2206 984 1816 
L 984 0 
L 422 0 
z
" transform="scale(0.015625)"/>
      </defs>
      <use xlink:href="#ArialMT-50"/>
      <use xlink:href="#ArialMT-52" transform="translate(66.699219 0)"/>
      <use xlink:href="#ArialMT-73" transform="translate(138.916016 0)"/>
      <use xlink:href="#ArialMT-20" transform="translate(188.916016 0)"/>
      <use xlink:href="#ArialMT-2f" transform="translate(216.699219 0)"/>
      <use xlink:href="#ArialMT-20" transform="translate(244.482422 0)"/>
      <use xlink:href="#ArialMT-50" transform="translate(272.265625 0)"/>
      <use xlink:href="#ArialMT-65" transform="translate(338.964844 0)"/>
      <use xlink:href="#ArialMT-72" transform="translate(394.580078 0)"/>
      <use xlink:href="#ArialMT-73" transform="translate(427.880859 0)"/>
      <use xlink:href="#ArialMT-6f" transform="translate(477.880859 0)"/>
      <use xlink:href="#ArialMT-6e" transform="translate(533.496094 0)"/>
      <use xlink:href="#ArialMT-20" transform="translate(589.111328 0)"/>
      <use xlink:href="#ArialMT-2f" transform="translate(616.894531 0)"/>
      <use xlink:href="#ArialMT-20" transform="translate(644.677734 0)"/>
      <use xlink:href="#ArialMT-4d" transform="translate(672.460938 0)"/>
      <use xlink:href="#ArialMT-6f" transform="translate(755.761719 0)"/>
      <use xlink:href="#ArialMT-6e" transform="translate(811.376953 0)"/>
      <use xlink:href="#ArialMT-74" transform="translate(866.992188 0)"/>
      <use xlink:href="#ArialMT-68" transform="translate(894.775391 0)"/>
     </g>
    </g>
   </g>
   <g id="line2d_23">
    <path d="M 86.922088 371.323381 
L 95.059699 371.323381 
L 102.672303 371.323381 
L 110.809914 371.323381 
L 118.685022 371.323381 
L 126.822633 371.323381 
L 134.69774 371.323381 
L 142.835352 371.323381 
L 150.972963 371.323381 
L 158.84807 371.323381 
L 166.985681 371.323381 
L 174.860789 371.323381 
L 182.9984 371.323381 
L 191.136011 371.323381 
L 198.486112 371.323381 
L 206.623723 371.323381 
L 214.49883 371.323381 
L 222.636441 371.323381 
L 230.511549 371.323381 
L 238.64916 371.323381 
L 246.786771 371.323381 
L 254.661879 371.323381 
L 262.79949 371.323381 
L 270.674597 371.323381 
L 278.812209 371.323381 
L 286.94982 371.323381 
L 294.29992 371.323381 
L 302.437531 371.323381 
L 310.312639 371.323381 
L 318.45025 371.323381 
L 326.325357 371.323381 
L 334.462968 371.323381 
L 342.60058 371.323381 
L 350.475687 371.323381 
L 358.613298 371.323381 
L 366.488406 371.323381 
L 374.626017 371.323381 
L 382.763628 371.323381 
L 390.113728 371.323381 
L 398.25134 371.323381 
L 406.126447 371.323381 
L 414.264058 371.323381 
L 422.139166 371.323381 
L 430.276777 371.323381 
L 438.414388 371.323381 
L 446.289496 371.323381 
L 454.427107 371.323381 
L 462.302214 371.323381 
L 470.439825 371.323381 
L 478.577437 371.323381 
L 486.19004 371.323381 
L 494.327652 371.323381 
L 502.202759 371.323381 
L 510.34037 371.323381 
L 518.215478 371.323381 
L 526.353089 371.323381 
L 534.4907 371.323381 
L 542.365808 371.323381 
L 550.503419 371.323381 
L 558.378526 371.323381 
L 566.516137 371.323381 
L 574.653749 371.323381 
L 582.003849 371.323381 
L 590.14146 371.323381 
L 598.016568 371.323381 
L 606.154179 371.323381 
L 614.029286 371.323381 
L 622.166897 371.323381 
L 630.304508 371.323381 
L 638.179616 371.323381 
L 646.317227 371.323381 
L 654.192335 371.323381 
L 662.329946 371.323381 
L 670.467557 371.323381 
L 677.817657 371.323381 
L 685.955268 371.323381 
L 693.830376 371.323381 
L 701.967987 371.323381 
L 709.843095 371.323381 
L 717.980706 371.323381 
L 726.118317 371.323381 
L 733.993424 371.323381 
L 742.131036 371.323381 
L 750.006143 371.323381 
L 758.143754 371.323381 
L 766.281365 371.323381 
L 773.631466 371.323381 
L 781.769077 371.323381 
L 789.644184 371.323381 
L 797.781796 371.323381 
L 805.656903 371.323381 
L 813.794514 371.323381 
L 821.932125 371.323381 
L 829.807233 371.323381 
L 837.944844 371.323381 
L 845.819952 371.323381 
L 853.957563 371.323381 
L 862.095174 371.323381 
L 869.707778 371.323381 
L 877.845389 371.323381 
L 885.720496 371.323381 
L 893.858108 371.323381 
L 901.733215 371.323381 
L 909.870826 371.323381 
L 918.008437 371.323381 
L 925.883545 371.323381 
L 934.021156 371.323381 
L 941.896264 371.323381 
L 950.033875 371.323381 
L 958.171486 371.323381 
L 965.521586 371.323381 
L 973.659197 371.323381 
L 981.534305 371.323381 
L 989.671916 371.323381 
L 997.547024 371.323381 
L 1005.684635 371.323381 
L 1013.822246 371.323381 
L 1021.697353 371.323381 
L 1029.834964 371.323381 
L 1037.710072 371.323381 
L 1045.847683 371.323381 
L 1053.985294 371.323381 
L 1061.335395 371.323381 
L 1069.473006 371.323381 
L 1077.348113 371.323381 
L 1085.485724 371.323381 
" clip-path="url(#pc941f2fe99)" style="fill: none; stroke: #dc2626; stroke-width: 1.5; stroke-linecap: round"/>
   </g>
   <g id="line2d_24">
    <path d="M 86.922088 353.132812 
L 95.059699 353.639984 
L 102.672303 354.417648 
L 110.809914 355.003713 
L 118.685022 355.86027 
L 126.822633 356.356172 
L 134.69774 356.694286 
L 142.835352 356.32236 
L 150.972963 356.175844 
L 158.84807 356.029328 
L 166.985681 356.818262 
L 174.860789 356.559041 
L 182.9984 356.5365 
L 191.136011 356.412524 
L 198.486112 357.178917 
L 206.623723 358.520106 
L 214.49883 358.328507 
L 222.636441 357.900229 
L 230.511549 357.145106 
L 238.64916 357.798794 
L 246.786771 358.012934 
L 254.661879 357.145106 
L 262.79949 356.671745 
L 270.674597 356.660475 
L 278.812209 358.024204 
L 286.94982 358.328507 
L 294.29992 358.85822 
L 302.437531 358.722974 
L 310.312639 358.824409 
L 318.45025 358.441212 
L 326.325357 358.542647 
L 334.462968 357.877688 
L 342.60058 357.438139 
L 350.475687 338.424824 
L 358.613298 338.109251 
L 366.488406 338.672775 
L 374.626017 357.359245 
L 382.763628 357.686089 
L 390.113728 357.201458 
L 398.25134 356.953508 
L 406.126447 357.133835 
L 414.264058 357.077483 
L 422.139166 357.314163 
L 430.276777 356.818262 
L 438.414388 357.032401 
L 446.289496 354.721951 
L 454.427107 354.834656 
L 462.302214 355.341828 
L 470.439825 357.911499 
L 478.577437 358.463753 
L 486.19004 357.731171 
L 494.327652 357.483221 
L 502.202759 356.942237 
L 510.34037 356.863344 
L 518.215478 356.378713 
L 526.353089 356.232196 
L 534.4907 356.716827 
L 542.365808 354.158426 
L 550.503419 354.767033 
L 558.378526 354.947361 
L 566.516137 358.249614 
L 574.653749 358.553917 
L 582.003849 358.046745 
L 590.14146 358.204532 
L 598.016568 358.283425 
L 606.154179 358.452483 
L 614.029286 358.17072 
L 622.166897 357.663548 
L 630.304508 357.719901 
L 638.179616 354.395107 
L 646.317227 354.406377 
L 654.192335 354.530353 
L 662.329946 358.114368 
L 670.467557 358.305966 
L 677.817657 358.058016 
L 685.955268 358.15945 
L 693.830376 358.38486 
L 701.967987 357.731171 
L 709.843095 357.088754 
L 717.980706 356.412524 
L 726.118317 356.423795 
L 733.993424 351.498591 
L 742.131036 351.667649 
L 750.006143 351.971952 
L 758.143754 356.435065 
L 766.281365 356.683016 
L 773.631466 356.615393 
L 781.769077 355.184041 
L 789.644184 354.135886 
L 797.781796 354.056992 
L 805.656903 355.477074 
L 813.794514 355.431992 
L 821.932125 355.341828 
L 829.807233 351.036501 
L 837.944844 351.904329 
L 845.819952 352.197361 
L 853.957563 356.333631 
L 862.095174 355.679942 
L 869.707778 354.981172 
L 877.845389 355.353098 
L 885.720496 355.826459 
L 893.858108 356.446336 
L 901.733215 356.344901 
L 909.870826 355.939164 
L 918.008437 355.713754 
L 925.883545 353.414574 
L 934.021156 353.211705 
L 941.896264 353.189164 
L 950.033875 355.668672 
L 958.171486 355.679942 
L 965.521586 355.206582 
L 973.659197 354.530353 
L 981.534305 354.24859 
L 989.671916 353.685066 
L 997.547024 353.470927 
L 1005.684635 352.794697 
L 1013.822246 352.738345 
L 1021.697353 350.574411 
L 1029.834964 349.684043 
L 1037.710072 349.041625 
L 1045.847683 348.342854 
L 1053.985294 346.652281 
L 1061.335395 342.527282 
L 1069.473006 339.69839 
L 1077.348113 336.148186 
L 1085.485724 342.053922 
" clip-path="url(#pc941f2fe99)" style="fill: none; stroke: #d97706; stroke-width: 1.5; stroke-linecap: round"/>
   </g>
   <g id="line2d_25">
    <path d="M 86.922088 218.732235 
L 95.059699 213.592892 
L 102.672303 216.354162 
L 110.809914 217.774244 
L 118.685022 222.485308 
L 126.822633 220.45662 
L 134.69774 222.226087 
L 142.835352 222.53039 
L 150.972963 227.173831 
L 158.84807 228.898216 
L 166.985681 229.382847 
L 174.860789 233.169731 
L 182.9984 233.361329 
L 191.136011 232.290633 
L 198.486112 228.030388 
L 206.623723 228.853134 
L 214.49883 230.329568 
L 222.636441 230.273215 
L 230.511549 232.437149 
L 238.64916 234.634895 
L 246.786771 239.131819 
L 254.661879 237.463787 
L 262.79949 241.273212 
L 270.674597 243.414605 
L 278.812209 242.929974 
L 286.94982 240.078541 
L 294.29992 237.53141 
L 302.437531 239.424852 
L 310.312639 239.391041 
L 318.45025 240.439196 
L 326.325357 237.9935 
L 334.462968 235.412558 
L 342.60058 229.833666 
L 350.475687 223.116455 
L 358.613298 225.494528 
L 366.488406 228.977109 
L 374.626017 233.710714 
L 382.763628 225.686127 
L 390.113728 218.540637 
L 398.25134 214.810105 
L 406.126447 218.85621 
L 414.264058 219.893095 
L 422.139166 218.326497 
L 430.276777 214.0099 
L 438.414388 213.829572 
L 446.289496 210.617483 
L 454.427107 213.649245 
L 462.302214 217.729162 
L 470.439825 219.814202 
L 478.577437 220.298833 
L 486.19004 212.939204 
L 494.327652 207.292689 
L 502.202759 200.936133 
L 510.34037 200.913593 
L 518.215478 206.424861 
L 526.353089 211.00068 
L 534.4907 210.561131 
L 542.365808 214.111335 
L 550.503419 215.565228 
L 558.378526 221.087767 
L 566.516137 220.141046 
L 574.653749 217.165637 
L 582.003849 210.764 
L 590.14146 205.218919 
L 598.016568 198.501708 
L 606.154179 198.32138 
L 614.029286 199.640027 
L 622.166897 204.227116 
L 630.304508 207.022197 
L 638.179616 205.613386 
L 646.317227 211.147196 
L 654.192335 214.167687 
L 662.329946 217.492481 
L 670.467557 215.114408 
L 677.817657 206.334698 
L 685.955268 205.951501 
L 693.830376 198.242487 
L 701.967987 198.648224 
L 709.843095 195.255807 
L 717.980706 191.468923 
L 726.118317 190.556013 
L 733.993424 186.814211 
L 742.131036 192.291669 
L 750.006143 196.619536 
L 758.143754 199.887978 
L 766.281365 198.389003 
L 773.631466 186.960728 
L 781.769077 180.243516 
L 789.644184 176.253763 
L 797.781796 178.47405 
L 805.656903 179.882861 
L 813.794514 175.25069 
L 821.932125 174.044748 
L 829.807233 170.979175 
L 837.944844 175.983272 
L 845.819952 183.748638 
L 853.957563 181.054992 
L 862.095174 180.592902 
L 869.707778 167.350077 
L 877.845389 168.026307 
L 885.720496 165.34393 
L 893.858108 170.269134 
L 901.733215 168.375692 
L 909.870826 167.282454 
L 918.008437 165.636963 
L 925.883545 164.532455 
L 934.021156 166.685119 
L 941.896264 172.26401 
L 950.033875 176.41155 
L 958.171486 171.576511 
L 965.521586 161.906431 
L 973.659197 158.299875 
L 981.534305 157.139015 
L 989.671916 160.553973 
L 997.547024 159.956637 
L 1005.684635 160.937169 
L 1013.822246 159.33676 
L 1021.697353 157.02631 
L 1029.834964 162.357251 
L 1037.710072 165.411553 
L 1045.847683 160.508891 
L 1053.985294 142.588814 
L 1061.335395 105.170792 
L 1069.473006 74.109325 
L 1077.348113 39.959744 
L 1085.485724 128.444351 
" clip-path="url(#pc941f2fe99)" style="fill: none; stroke: #2563eb; stroke-width: 1.5; stroke-linecap: round"/>
   </g>
   <g id="patch_3">
    <path d="M 36.993906 387.891562 
L 36.993906 23.391562 
" style="fill: none; stroke: #64748b; stroke-width: 0.8; stroke-linejoin: miter; stroke-linecap: square"/>
   </g>
   <g id="patch_4">
    <path d="M 1135.413906 387.891562 
L 1135.413906 23.391562 
" style="fill: none; stroke: #64748b; stroke-width: 0.8; stroke-linejoin: miter; stroke-linecap: square"/>
   </g>
   <g id="patch_5">
    <path d="M 36.993906 387.891562 
L 1135.413906 387.891562 
" style="fill: none; stroke: #64748b; stroke-width: 0.8; stroke-linejoin: miter; stroke-linecap: square"/>
   </g>
   <g id="patch_6">
    <path d="M 36.993906 23.391562 
L 1135.413906 23.391562 
" style="fill: none; stroke: #64748b; stroke-width: 0.8; stroke-linejoin: miter; stroke-linecap: square"/>
   </g>
   <g id="text_14">
    <!-- PRs per Contributor per Month by Author Type -->
    <g style="fill: #262626" transform="translate(431.05 17.391562) scale(0.14 -0.14)">
     <defs>
      <path id="Arial-BoldMT-50" d="M 466 0 
L 466 4581 
L 1950 4581 
Q 2794 4581 3050 4513 
Q 3444 4409 3709 4064 
Q 3975 3719 3975 3172 
Q 3975 2750 3822 2462 
Q 3669 2175 3433 2011 
Q 3197 1847 2953 1794 
Q 2622 1728 1994 1728 
L 1391 1728 
L 1391 0 
L 466 0 
z
M 1391 3806 
L 1391 2506 
L 1897 2506 
Q 2444 2506 2628 2578 
Q 2813 2650 2917 2803 
Q 3022 2956 3022 3159 
Q 3022 3409 2875 3571 
Q 2728 3734 2503 3775 
Q 2338 3806 1838 3806 
L 1391 3806 
z
" transform="scale(0.015625)"/>
      <path id="Arial-BoldMT-52" d="M 469 0 
L 469 4581 
L 2416 4581 
Q 3150 4581 3483 4457 
Q 3816 4334 4016 4018 
Q 4216 3703 4216 3297 
Q 4216 2781 3912 2445 
Q 3609 2109 3006 2022 
Q 3306 1847 3501 1637 
Q 3697 1428 4028 894 
L 4588 0 
L 3481 0 
L 2813 997 
Q 2456 1531 2325 1670 
Q 2194 1809 2047 1861 
Q 1900 1913 1581 1913 
L 1394 1913 
L 1394 0 
L 469 0 
z
M 1394 2644 
L 2078 2644 
Q 2744 2644 2909 2700 
Q 3075 2756 3169 2893 
Q 3263 3031 3263 3238 
Q 3263 3469 3139 3611 
Q 3016 3753 2791 3791 
Q 2678 3806 2116 3806 
L 1394 3806 
L 1394 2644 
z
" transform="scale(0.015625)"/>
      <path id="Arial-BoldMT-73" d="M 150 947 
L 1031 1081 
Q 1088 825 1259 692 
Q 1431 559 1741 559 
Q 2081 559 2253 684 
Q 2369 772 2369 919 
Q 2369 1019 2306 1084 
Q 2241 1147 2013 1200 
Q 950 1434 666 1628 
Q 272 1897 272 2375 
Q 272 2806 612 3100 
Q 953 3394 1669 3394 
Q 2350 3394 2681 3172 
Q 3013 2950 3138 2516 
L 2309 2363 
Q 2256 2556 2107 2659 
Q 1959 2763 1684 2763 
Q 1338 2763 1188 2666 
Q 1088 2597 1088 2488 
Q 1088 2394 1175 2328 
Q 1294 2241 1995 2081 
Q 2697 1922 2975 1691 
Q 3250 1456 3250 1038 
Q 3250 581 2869 253 
Q 2488 -75 1741 -75 
Q 1063 -75 667 200 
Q 272 475 150 947 
z
" transform="scale(0.015625)"/>
      <path id="Arial-BoldMT-20" transform="scale(0.015625)"/>
      <path id="Arial-BoldMT-70" d="M 434 3319 
L 1253 3319 
L 1253 2831 
Q 1413 3081 1684 3237 
Q 1956 3394 2288 3394 
Q 2866 3394 3269 2941 
Q 3672 2488 3672 1678 
Q 3672 847 3265 386 
Q 2859 -75 2281 -75 
Q 2006 -75 1782 34 
Q 1559 144 1313 409 
L 1313 -1263 
L 434 -1263 
L 434 3319 
z
M 1303 1716 
Q 1303 1156 1525 889 
Q 1747 622 2066 622 
Q 2372 622 2575 867 
Q 2778 1113 2778 1672 
Q 2778 2194 2568 2447 
Q 2359 2700 2050 2700 
Q 1728 2700 1515 2451 
Q 1303 2203 1303 1716 
z
" transform="scale(0.015625)"/>
      <path id="Arial-BoldMT-65" d="M 2381 1056 
L 3256 909 
Q 3088 428 2723 176 
Q 2359 -75 1813 -75 
Q 947 -75 531 491 
Q 203 944 203 1634 
Q 203 2459 634 2926 
Q 1066 3394 1725 3394 
Q 2466 3394 2894 2905 
Q 3322 2416 3303 1406 
L 1103 1406 
Q 1113 1016 1316 798 
Q 1519 581 1822 581 
Q 2028 581 2168 693 
Q 2309 806 2381 1056 
z
M 2431 1944 
Q 2422 2325 2234 2523 
Q 2047 2722 1778 2722 
Q 1491 2722 1303 2513 
Q 1116 2303 1119 1944 
L 2431 1944 
z
" transform="scale(0.015625)"/>
      <path id="Arial-BoldMT-72" d="M 1300 0 
L 422 0 
L 422 3319 
L 1238 3319 
L 1238 2847 
Q 1447 3181 1614 3287 
Q 1781 3394 1994 3394 
Q 2294 3394 2572 3228 
L 2300 2463 
Q 2078 2606 1888 2606 
Q 1703 2606 1575 2504 
Q 1447 2403 1373 2137 
Q 1300 1872 1300 1025 
L 1300 0 
z
" transform="scale(0.015625)"/>
      <path id="Arial-BoldMT-43" d="M 3397 1684 
L 4294 1400 
Q 4088 650 3608 286 
Q 3128 -78 2391 -78 
Q 1478 -78 890 545 
Q 303 1169 303 2250 
Q 303 3394 893 4026 
Q 1484 4659 2447 4659 
Q 3288 4659 3813 4163 
Q 4125 3869 4281 3319 
L 3366 3100 
Q 3284 3456 3026 3662 
Q 2769 3869 2400 3869 
Q 1891 3869 1573 3503 
Q 1256 3138 1256 2319 
Q 1256 1450 1568 1081 
Q 1881 713 2381 713 
Q 2750 713 3015 947 
Q 3281 1181 3397 1684 
z
" transform="scale(0.015625)"/>
      <path id="Arial-BoldMT-6f" d="M 256 1706 
Q 256 2144 472 2553 
Q 688 2963 1083 3178 
Q 1478 3394 1966 3394 
Q 2719 3394 3200 2905 
Q 3681 2416 3681 1669 
Q 3681 916 3195 420 
Q 2709 -75 1972 -75 
Q 1516 -75 1102 131 
Q 688 338 472 736 
Q 256 1134 256 1706 
z
M 1156 1659 
Q 1156 1166 1390 903 
Q 1625 641 1969 641 
Q 2313 641 2545 903 
Q 2778 1166 2778 1666 
Q 2778 2153 2545 2415 
Q 2313 2678 1969 2678 
Q 1625 2678 1390 2415 
Q 1156 2153 1156 1659 
z
" transform="scale(0.015625)"/>
      <path id="Arial-BoldMT-6e" d="M 3478 0 
L 2600 0 
L 2600 1694 
Q 2600 2231 2544 2389 
Q 2488 2547 2361 2634 
Q 2234 2722 2056 2722 
Q 1828 2722 1647 2597 
Q 1466 2472 1398 2265 
Q 1331 2059 1331 1503 
L 1331 0 
L 453 0 
L 453 3319 
L 1269 3319 
L 1269 2831 
Q 1703 3394 2363 3394 
Q 2653 3394 2893 3289 
Q 3134 3184 3257 3021 
Q 3381 2859 3429 2653 
Q 3478 2447 3478 2063 
L 3478 0 
z
" transform="scale(0.015625)"/>
      <path id="Arial-BoldMT-74" d="M 1981 3319 
L 1981 2619 
L 1381 2619 
L 1381 1281 
Q 1381 875 1398 808 
Q 1416 741 1477 697 
Q 1538 653 1625 653 
Q 1747 653 1978 738 
L 2053 56 
Q 1747 -75 1359 -75 
Q 1122 -75 931 4 
Q 741 84 652 211 
Q 563 338 528 553 
Q 500 706 500 1172 
L 500 2619 
L 97 2619 
L 97 3319 
L 500 3319 
L 500 3978 
L 1381 4491 
L 1381 3319 
L 1981 3319 
z
" transform="scale(0.015625)"/>
      <path id="Arial-BoldMT-69" d="M 459 3769 
L 459 4581 
L 1338 4581 
L 1338 3769 
L 459 3769 
z
M 459 0 
L 459 3319 
L 1338 3319 
L 1338 0 
L 459 0 
z
" transform="scale(0.015625)"/>
      <path id="Arial-BoldMT-62" d="M 422 0 
L 422 4581 
L 1300 4581 
L 1300 2931 
Q 1706 3394 2263 3394 
Q 2869 3394 3266 2955 
Q 3663 2516 3663 1694 
Q 3663 844 3258 384 
Q 2853 -75 2275 -75 
Q 1991 -75 1714 67 
Q 1438 209 1238 488 
L 1238 0 
L 422 0 
z
M 1294 1731 
Q 1294 1216 1456 969 
Q 1684 619 2063 619 
Q 2353 619 2558 867 
Q 2763 1116 2763 1650 
Q 2763 2219 2556 2470 
Q 2350 2722 2028 2722 
Q 1713 2722 1503 2476 
Q 1294 2231 1294 1731 
z
" transform="scale(0.015625)"/>
      <path id="Arial-BoldMT-75" d="M 2644 0 
L 2644 497 
Q 2463 231 2167 78 
Q 1872 -75 1544 -75 
Q 1209 -75 943 72 
Q 678 219 559 484 
Q 441 750 441 1219 
L 441 3319 
L 1319 3319 
L 1319 1794 
Q 1319 1094 1367 936 
Q 1416 778 1544 686 
Q 1672 594 1869 594 
Q 2094 594 2272 717 
Q 2450 841 2515 1023 
Q 2581 1206 2581 1919 
L 2581 3319 
L 3459 3319 
L 3459 0 
L 2644 0 
z
" transform="scale(0.015625)"/>
      <path id="Arial-BoldMT-4d" d="M 453 0 
L 453 4581 
L 1838 4581 
L 2669 1456 
L 3491 4581 
L 4878 4581 
L 4878 0 
L 4019 0 
L 4019 3606 
L 3109 0 
L 2219 0 
L 1313 3606 
L 1313 0 
L 453 0 
z
" transform="scale(0.015625)"/>
      <path id="Arial-BoldMT-68" d="M 1334 4581 
L 1334 2897 
Q 1759 3394 2350 3394 
Q 2653 3394 2897 3281 
Q 3141 3169 3264 2994 
Q 3388 2819 3433 2606 
Q 3478 2394 3478 1947 
L 3478 0 
L 2600 0 
L 2600 1753 
Q 2600 2275 2550 2415 
Q 2500 2556 2373 2639 
Q 2247 2722 2056 2722 
Q 1838 2722 1666 2615 
Q 1494 2509 1414 2295 
Q 1334 2081 1334 1663 
L 1334 0 
L 456 0 
L 456 4581 
L 1334 4581 
z
" transform="scale(0.015625)"/>
      <path id="Arial-BoldMT-79" d="M 44 3319 
L 978 3319 
L 1772 963 
L 2547 3319 
L 3456 3319 
L 2284 125 
L 2075 -453 
Q 1959 -744 1854 -897 
Q 1750 -1050 1614 -1145 
Q 1478 -1241 1279 -1294 
Q 1081 -1347 831 -1347 
Q 578 -1347 334 -1294 
L 256 -606 
Q 463 -647 628 -647 
Q 934 -647 1081 -467 
Q 1228 -288 1306 -9 
L 44 3319 
z
" transform="scale(0.015625)"/>
      <path id="Arial-BoldMT-41" d="M 4597 0 
L 3591 0 
L 3191 1041 
L 1359 1041 
L 981 0 
L 0 0 
L 1784 4581 
L 2763 4581 
L 4597 0 
z
M 2894 1813 
L 2263 3513 
L 1644 1813 
L 2894 1813 
z
" transform="scale(0.015625)"/>
      <path id="Arial-BoldMT-54" d="M 1497 0 
L 1497 3806 
L 138 3806 
L 138 4581 
L 3778 4581 
L 3778 3806 
L 2422 3806 
L 2422 0 
L 1497 0 
z
" transform="scale(0.015625)"/>
     </defs>
     <use xlink:href="#Arial-BoldMT-50"/>
     <use xlink:href="#Arial-BoldMT-52" transform="translate(66.699219 0)"/>
     <use xlink:href="#Arial-BoldMT-73" transform="translate(138.916016 0)"/>
     <use xlink:href="#Arial-BoldMT-20" transform="translate(194.53125 0)"/>
     <use xlink:href="#Arial-BoldMT-70" transform="translate(222.314453 0)"/>
     <use xlink:href="#Arial-BoldMT-65" transform="translate(283.398438 0)"/>
     <use xlink:href="#Arial-BoldMT-72" transform="translate(339.013672 0)"/>
     <use xlink:href="#Arial-BoldMT-20" transform="translate(377.929688 0)"/>
     <use xlink:href="#Arial-BoldMT-43" transform="translate(405.712891 0)"/>
     <use xlink:href="#Arial-BoldMT-6f" transform="translate(477.929688 0)"/>
     <use xlink:href="#Arial-BoldMT-6e" transform="translate(539.013672 0)"/>
     <use xlink:href="#Arial-BoldMT-74" transform="translate(600.097656 0)"/>
     <use xlink:href="#Arial-BoldMT-72" transform="translate(633.398438 0)"/>
     <use xlink:href="#Arial-BoldMT-69" transform="translate(672.314453 0)"/>
     <use xlink:href="#Arial-BoldMT-62" transform="translate(700.097656 0)"/>
     <use xlink:href="#Arial-BoldMT-75" transform="translate(761.181641 0)"/>
     <use xlink:href="#Arial-BoldMT-74" transform="translate(822.265625 0)"/>
     <use xlink:href="#Arial-BoldMT-6f" transform="translate(855.566406 0)"/>
     <use xlink:href="#Arial-BoldMT-72" transform="translate(916.650391 0)"/>
     <use xlink:href="#Arial-BoldMT-20" transform="translate(955.566406 0)"/>
     <use xlink:href="#Arial-BoldMT-70" transform="translate(983.349609 0)"/>
     <use xlink:href="#Arial-BoldMT-65" transform="translate(1044.433594 0)"/>
     <use xlink:href="#Arial-BoldMT-72" transform="translate(1100.048828 0)"/>
     <use xlink:href="#Arial-BoldMT-20" transform="translate(1138.964844 0)"/>
     <use xlink:href="#Arial-BoldMT-4d" transform="translate(1166.748047 0)"/>
     <use xlink:href="#Arial-BoldMT-6f" transform="translate(1250.048828 0)"/>
     <use xlink:href="#Arial-BoldMT-6e" transform="translate(1311.132812 0)"/>
     <use xlink:href="#Arial-BoldMT-74" transform="translate(1372.216797 0)"/>
     <use xlink:href="#Arial-BoldMT-68" transform="translate(1405.517578 0)"/>
     <use xlink:href="#Arial-BoldMT-20" transform="translate(1466.601562 0)"/>
     <use xlink:href="#Arial-BoldMT-62" transform="translate(1494.384766 0)"/>
     <use xlink:href="#Arial-BoldMT-79" transform="translate(1555.46875 0)"/>
     <use xlink:href="#Arial-BoldMT-20" transform="translate(1611.083984 0)"/>
     <use xlink:href="#Arial-BoldMT-41" transform="translate(1635.117188 0)"/>
     <use xlink:href="#Arial-BoldMT-75" transform="translate(1707.333984 0)"/>
     <use xlink:href="#Arial-BoldMT-74" transform="translate(1768.417969 0)"/>
     <use xlink:href="#Arial-BoldMT-68" transform="translate(1801.71875 0)"/>
     <use xlink:href="#Arial-BoldMT-6f" transform="translate(1862.802734 0)"/>
     <use xlink:href="#Arial-BoldMT-72" transform="translate(1923.886719 0)"/>
     <use xlink:href="#Arial-BoldMT-20" transform="translate(1962.802734 0)"/>
     <use xlink:href="#Arial-BoldMT-54" transform="translate(1990.585938 0)"/>
     <use xlink:href="#Arial-BoldMT-79" transform="translate(2044.294922 0)"/>
     <use xlink:href="#Arial-BoldMT-70" transform="translate(2099.910156 0)"/>
     <use xlink:href="#Arial-BoldMT-65" transform="translate(2160.994141 0)"/>
    </g>
   </g>
   <g id="legend_1">
    <g id="patch_7">
     <path d="M 39.193906 73.5 
L 125.748438 73.5 
Q 127.948438 73.5 127.948438 71.3 
L 127.948438 25.591562 
Q 127.948438 23.391562 125.748438 23.391562 
L 39.193906 23.391562 
Q 36.993906 23.391562 36.993906 25.591562 
L 36.993906 71.3 
Q 36.993906 73.5 39.193906 73.5 
z
" style="fill: #ffffff; opacity: 0.9; stroke: #cccccc; stroke-linejoin: miter"/>
    </g>
    <g id="line2d_26">
     <path d="M 41.393906 31.815156 
L 52.393906 31.815156 
L 63.393906 31.815156 
" style="fill: none; stroke: #dc2626; stroke-width: 1.5; stroke-linecap: round"/>
    </g>
    <g id="text_15">
     <!-- first-timer -->
     <g style="fill: #262626" transform="translate(72.193906 35.665156) scale(0.11 -0.11)">
      <defs>
       <path id="ArialMT-66" d="M 556 0 
L 556 2881 
L 59 2881 
L 59 3319 
L 556 3319 
L 556 3672 
Q 556 4006 616 4169 
Q 697 4388 901 4523 
Q 1106 4659 1475 4659 
Q 1713 4659 2000 4603 
L 1916 4113 
Q 1741 4144 1584 4144 
Q 1328 4144 1222 4034 
Q 1116 3925 1116 3625 
L 1116 3319 
L 1763 3319 
L 1763 2881 
L 1116 2881 
L 1116 0 
L 556 0 
z
" transform="scale(0.015625)"/>
       <path id="ArialMT-69" d="M 425 3934 
L 425 4581 
L 988 4581 
L 988 3934 
L 425 3934 
z
M 425 0 
L 425 3319 
L 988 3319 
L 988 0 
L 425 0 
z
" transform="scale(0.015625)"/>
       <path id="ArialMT-2d" d="M 203 1375 
L 203 1941 
L 1931 1941 
L 1931 1375 
L 203 1375 
z
" transform="scale(0.015625)"/>
       <path id="ArialMT-6d" d="M 422 0 
L 422 3319 
L 925 3319 
L 925 2853 
Q 1081 3097 1340 3245 
Q 1600 3394 1931 3394 
Q 2300 3394 2536 3241 
Q 2772 3088 2869 2813 
Q 3263 3394 3894 3394 
Q 4388 3394 4653 3120 
Q 4919 2847 4919 2278 
L 4919 0 
L 4359 0 
L 4359 2091 
Q 4359 2428 4304 2576 
Q 4250 2725 4106 2815 
Q 3963 2906 3769 2906 
Q 3419 2906 3187 2673 
Q 2956 2441 2956 1928 
L 2956 0 
L 2394 0 
L 2394 2156 
Q 2394 2531 2256 2718 
Q 2119 2906 1806 2906 
Q 1569 2906 1367 2781 
Q 1166 2656 1075 2415 
Q 984 2175 984 1722 
L 984 0 
L 422 0 
z
" transform="scale(0.015625)"/>
      </defs>
      <use xlink:href="#ArialMT-66"/>
      <use xlink:href="#ArialMT-69" transform="translate(27.783203 0)"/>
      <use xlink:href="#ArialMT-72" transform="translate(50 0)"/>
      <use xlink:href="#ArialMT-73" transform="translate(83.300781 0)"/>
      <use xlink:href="#ArialMT-74" transform="translate(133.300781 0)"/>
      <use xlink:href="#ArialMT-2d" transform="translate(161.083984 0)"/>
      <use xlink:href="#ArialMT-74" transform="translate(194.384766 0)"/>
      <use xlink:href="#ArialMT-69" transform="translate(222.167969 0)"/>
      <use xlink:href="#ArialMT-6d" transform="translate(244.384766 0)"/>
      <use xlink:href="#ArialMT-65" transform="translate(327.685547 0)"/>
      <use xlink:href="#ArialMT-72" transform="translate(383.300781 0)"/>
     </g>
    </g>
    <g id="line2d_27">
     <path d="M 41.393906 47.375 
L 52.393906 47.375 
L 63.393906 47.375 
" style="fill: none; stroke: #d97706; stroke-width: 1.5; stroke-linecap: round"/>
    </g>
    <g id="text_16">
     <!-- regular -->
     <g style="fill: #262626" transform="translate(72.193906 51.225) scale(0.11 -0.11)">
      <defs>
       <path id="ArialMT-67" d="M 319 -275 
L 866 -356 
Q 900 -609 1056 -725 
Q 1266 -881 1628 -881 
Q 2019 -881 2231 -725 
Q 2444 -569 2519 -288 
Q 2563 -116 2559 434 
Q 2191 0 1641 0 
Q 956 0 581 494 
Q 206 988 206 1678 
Q 206 2153 378 2554 
Q 550 2956 876 3175 
Q 1203 3394 1644 3394 
Q 2231 3394 2613 2919 
L 2613 3319 
L 3131 3319 
L 3131 450 
Q 3131 -325 2973 -648 
Q 2816 -972 2473 -1159 
Q 2131 -1347 1631 -1347 
Q 1038 -1347 672 -1080 
Q 306 -813 319 -275 
z
M 784 1719 
Q 784 1066 1043 766 
Q 1303 466 1694 466 
Q 2081 466 2343 764 
Q 2606 1063 2606 1700 
Q 2606 2309 2336 2618 
Q 2066 2928 1684 2928 
Q 1309 2928 1046 2623 
Q 784 2319 784 1719 
z
" transform="scale(0.015625)"/>
       <path id="ArialMT-75" d="M 2597 0 
L 2597 488 
Q 2209 -75 1544 -75 
Q 1250 -75 995 37 
Q 741 150 617 320 
Q 494 491 444 738 
Q 409 903 409 1263 
L 409 3319 
L 972 3319 
L 972 1478 
Q 972 1038 1006 884 
Q 1059 663 1231 536 
Q 1403 409 1656 409 
Q 1909 409 2131 539 
Q 2353 669 2445 892 
Q 2538 1116 2538 1541 
L 2538 3319 
L 3100 3319 
L 3100 0 
L 2597 0 
z
" transform="scale(0.015625)"/>
       <path id="ArialMT-6c" d="M 409 0 
L 409 4581 
L 972 4581 
L 972 0 
L 409 0 
z
" transform="scale(0.015625)"/>
      </defs>
      <use xlink:href="#ArialMT-72"/>
      <use xlink:href="#ArialMT-65" transform="translate(33.300781 0)"/>
      <use xlink:href="#ArialMT-67" transform="translate(88.916016 0)"/>
      <use xlink:href="#ArialMT-75" transform="translate(144.53125 0)"/>
      <use xlink:href="#ArialMT-6c" transform="translate(200.146484 0)"/>
      <use xlink:href="#ArialMT-61" transform="translate(222.363281 0)"/>
      <use xlink:href="#ArialMT-72" transform="translate(277.978516 0)"/>
     </g>
    </g>
    <g id="line2d_28">
     <path d="M 41.393906 63.06375 
L 52.393906 63.06375 
L 63.393906 63.06375 
" style="fill: none; stroke: #2563eb; stroke-width: 1.5; stroke-linecap: round"/>
    </g>
    <g id="text_17">
     <!-- maintainer -->
     <g style="fill: #262626" transform="translate(72.193906 66.91375) scale(0.11 -0.11)">
      <use xlink:href="#ArialMT-6d"/>
      <use xlink:href="#ArialMT-61" transform="translate(83.300781 0)"/>
      <use xlink:href="#ArialMT-69" transform="translate(138.916016 0)"/>
      <use xlink:href="#ArialMT-6e" transform="translate(161.132812 0)"/>
      <use xlink:href="#ArialMT-74" transform="translate(216.748047 0)"/>
      <use xlink:href="#ArialMT-61" transform="translate(244.53125 0)"/>
      <use xlink:href="#ArialMT-69" transform="translate(300.146484 0)"/>
      <use xlink:href="#ArialMT-6e" transform="translate(322.363281 0)"/>
      <use xlink:href="#ArialMT-65" transform="translate(377.978516 0)"/>
      <use xlink:href="#ArialMT-72" transform="translate(433.59375 0)"/>
     </g>
    </g>
   </g>
  </g>
 </g>
 <defs>
  <clipPath id="pc941f2fe99">
   <rect x="36.993906" y="23.391562" width="1098.42" height="364.5"/>
  </clipPath>
 </defs>
</svg>
