<?xml version="1.0" encoding="utf-8" standalone="no"?>
<!DOCTYPE svg PUBLIC "-//W3C//DTD SVG 1.1//EN"
  "http://www.w3.org/Graphics/SVG/1.1/DTD/svg11.dtd">
<svg xmlns:xlink="http://www.w3.org/1999/xlink" width="1142.607969pt" height="494.731406pt" viewBox="0 0 1142.607969 494.731406" xmlns="http://www.w3.org/2000/svg" version="1.1">
 <metadata>
  <rdf:RDF xmlns:dc="http://purl.org/dc/elements/1.1/" xmlns:cc="http://creativecommons.org/ns#" xmlns:rdf="http://www.w3.org/1999/02/22-rdf-syntax-ns#">
   <cc:Work>
    <dc:type rdf:resource="http://purl.org/dc/dcmitype/StillImage"/>
    <dc:date>2026-06-11T20:30:57.606778</dc:date>
    <dc:format>image/svg+xml</dc:format>
    <dc:creator>
     <cc:Agent>
      <dc:title>Matplotlib v3.10.9, https://matplotlib.org/</dc:title>
     </cc:Agent>
    </dc:creator>
   </cc:Work>
  </rdf:RDF>
 </metadata>
 <defs>
  <style type="text/css">*{stroke-linejoin: round; stroke-linecap: butt}</style>
 </defs>
 <g id="figure_1">
  <g id="patch_1">
   <path d="M 0 494.731406 
L 1142.607969 494.731406 
L 1142.607969 0 
L 0 0 
z
" style="fill: #ffffff"/>
  </g>
  <g id="axes_1">
   <g id="patch_2">
    <path d="M 49.227969 473.971563 
L 1135.407969 473.971563 
L 1135.407969 23.391562 
L 49.227969 23.391562 
z
" style="fill: #ffffff"/>
   </g>
   <g id="matplotlib.axis_1">
    <g id="xtick_1">
     <g id="line2d_1">
      <path d="M 98.599787 473.971563 
L 98.599787 23.391562 
" clip-path="url(#p337c9e1828)" style="fill: none; stroke: #e2e8f0; stroke-width: 0.5; stroke-linecap: round"/>
     </g>
     <g id="line2d_2"/>
     <g id="text_1">
      <!-- 2016 -->
      <g style="fill: #262626" transform="translate(86.365724 485.345156) scale(0.11 -0.11)">
       <defs>
        <path id="ArialMT-32" d="M 3222 541 
L 3222 0 
L 194 0 
Q 188 203 259 391 
Q 375 700 629 1000 
Q 884 1300 1366 1694 
Q 2113 2306 2375 2664 
Q 2638 3022 2638 3341 
Q 2638 3675 2398 3904 
Q 2159 4134 1775 4134 
Q 1369 4134 1125 3890 
Q 881 3647 878 3216 
L 300 3275 
Q 359 3922 746 4261 
Q 1134 4600 1788 4600 
Q 2447 4600 2831 4234 
Q 3216 3869 3216 3328 
Q 3216 3053 3103 2787 
Q 2991 2522 2730 2228 
Q 2469 1934 1863 1422 
Q 1356 997 1212 845 
Q 1069 694 975 541 
L 3222 541 
z
" transform="scale(0.015625)"/>
        <path id="ArialMT-30" d="M 266 2259 
Q 266 3072 433 3567 
Q 600 4063 929 4331 
Q 1259 4600 1759 4600 
Q 2128 4600 2406 4451 
Q 2684 4303 2865 4023 
Q 3047 3744 3150 3342 
Q 3253 2941 3253 2259 
Q 3253 1453 3087 958 
Q 2922 463 2592 192 
Q 2263 -78 1759 -78 
Q 1097 -78 719 397 
Q 266 969 266 2259 
z
M 844 2259 
Q 844 1131 1108 757 
Q 1372 384 1759 384 
Q 2147 384 2411 759 
Q 2675 1134 2675 2259 
Q 2675 3391 2411 3762 
Q 2147 4134 1753 4134 
Q 1366 4134 1134 3806 
Q 844 3388 844 2259 
z
" transform="scale(0.015625)"/>
        <path id="ArialMT-31" d="M 2384 0 
L 1822 0 
L 1822 3584 
Q 1619 3391 1289 3197 
Q 959 3003 697 2906 
L 697 3450 
Q 1169 3672 1522 3987 
Q 1875 4303 2022 4600 
L 2384 4600 
L 2384 0 
z
" transform="scale(0.015625)"/>
        <path id="ArialMT-36" d="M 3184 3459 
L 2625 3416 
Q 2550 3747 2413 3897 
Q 2184 4138 1850 4138 
Q 1581 4138 1378 3988 
Q 1113 3794 959 3422 
Q 806 3050 800 2363 
Q 1003 2672 1297 2822 
Q 1591 2972 1913 2972 
Q 2475 2972 2870 2558 
Q 3266 2144 3266 1488 
Q 3266 1056 3080 686 
Q 2894 316 2569 119 
Q 2244 -78 1831 -78 
Q 1128 -78 684 439 
Q 241 956 241 2144 
Q 241 3472 731 4075 
Q 1159 4600 1884 4600 
Q 2425 4600 2770 4297 
Q 3116 3994 3184 3459 
z
M 888 1484 
Q 888 1194 1011 928 
Q 1134 663 1356 523 
Q 1578 384 1822 384 
Q 2178 384 2434 671 
Q 2691 959 2691 1453 
Q 2691 1928 2437 2201 
Q 2184 2475 1800 2475 
Q 1419 2475 1153 2201 
Q 888 1928 888 1484 
z
" transform="scale(0.015625)"/>
       </defs>
       <use xlink:href="#ArialMT-32"/>
       <use xlink:href="#ArialMT-30" transform="translate(55.615234 0)"/>
       <use xlink:href="#ArialMT-31" transform="translate(111.230469 0)"/>
       <use xlink:href="#ArialMT-36" transform="translate(166.845703 0)"/>
      </g>
     </g>
    </g>
    <g id="xtick_2">
     <g id="line2d_3">
      <path d="M 288.351622 473.971563 
L 288.351622 23.391562 
" clip-path="url(#p337c9e1828)" style="fill: none; stroke: #e2e8f0; stroke-width: 0.5; stroke-linecap: round"/>
     </g>
     <g id="line2d_4"/>
     <g id="text_2">
      <!-- 2018 -->
      <g style="fill: #262626" transform="translate(276.11756 485.345156) scale(0.11 -0.11)">
       <defs>
        <path id="ArialMT-38" d="M 1131 2484 
Q 781 2613 612 2850 
Q 444 3088 444 3419 
Q 444 3919 803 4259 
Q 1163 4600 1759 4600 
Q 2359 4600 2725 4251 
Q 3091 3903 3091 3403 
Q 3091 3084 2923 2848 
Q 2756 2613 2416 2484 
Q 2838 2347 3058 2040 
Q 3278 1734 3278 1309 
Q 3278 722 2862 322 
Q 2447 -78 1769 -78 
Q 1091 -78 675 323 
Q 259 725 259 1325 
Q 259 1772 486 2073 
Q 713 2375 1131 2484 
z
M 1019 3438 
Q 1019 3113 1228 2906 
Q 1438 2700 1772 2700 
Q 2097 2700 2305 2904 
Q 2513 3109 2513 3406 
Q 2513 3716 2298 3927 
Q 2084 4138 1766 4138 
Q 1444 4138 1231 3931 
Q 1019 3725 1019 3438 
z
M 838 1322 
Q 838 1081 952 856 
Q 1066 631 1291 507 
Q 1516 384 1775 384 
Q 2178 384 2440 643 
Q 2703 903 2703 1303 
Q 2703 1709 2433 1975 
Q 2163 2241 1756 2241 
Q 1359 2241 1098 1978 
Q 838 1716 838 1322 
z
" transform="scale(0.015625)"/>
       </defs>
       <use xlink:href="#ArialMT-32"/>
       <use xlink:href="#ArialMT-30" transform="translate(55.615234 0)"/>
       <use xlink:href="#ArialMT-31" transform="translate(111.230469 0)"/>
       <use xlink:href="#ArialMT-38" transform="translate(166.845703 0)"/>
      </g>
     </g>
    </g>
    <g id="xtick_3">
     <g id="line2d_5">
      <path d="M 477.843879 473.971563 
L 477.843879 23.391562 
" clip-path="url(#p337c9e1828)" style="fill: none; stroke: #e2e8f0; stroke-width: 0.5; stroke-linecap: round"/>
     </g>
     <g id="line2d_6"/>
     <g id="text_3">
      <!-- 2020 -->
      <g style="fill: #262626" transform="translate(465.609817 485.345156) scale(0.11 -0.11)">
       <use xlink:href="#ArialMT-32"/>
       <use xlink:href="#ArialMT-30" transform="translate(55.615234 0)"/>
       <use xlink:href="#ArialMT-32" transform="translate(111.230469 0)"/>
       <use xlink:href="#ArialMT-30" transform="translate(166.845703 0)"/>
      </g>
     </g>
    </g>
    <g id="xtick_4">
     <g id="line2d_7">
      <path d="M 667.595715 473.971563 
L 667.595715 23.391562 
" clip-path="url(#p337c9e1828)" style="fill: none; stroke: #e2e8f0; stroke-width: 0.5; stroke-linecap: round"/>
     </g>
     <g id="line2d_8"/>
     <g id="text_4">
      <!-- 2022 -->
      <g style="fill: #262626" transform="translate(655.361652 485.345156) scale(0.11 -0.11)">
       <use xlink:href="#ArialMT-32"/>
       <use xlink:href="#ArialMT-30" transform="translate(55.615234 0)"/>
       <use xlink:href="#ArialMT-32" transform="translate(111.230469 0)"/>
       <use xlink:href="#ArialMT-32" transform="translate(166.845703 0)"/>
      </g>
     </g>
    </g>
    <g id="xtick_5">
     <g id="line2d_9">
      <path d="M 857.087972 473.971563 
L 857.087972 23.391562 
" clip-path="url(#p337c9e1828)" style="fill: none; stroke: #e2e8f0; stroke-width: 0.5; stroke-linecap: round"/>
     </g>
     <g id="line2d_10"/>
     <g id="text_5">
      <!-- 2024 -->
      <g style="fill: #262626" transform="translate(844.853909 485.345156) scale(0.11 -0.11)">
       <defs>
        <path id="ArialMT-34" d="M 2069 0 
L 2069 1097 
L 81 1097 
L 81 1613 
L 2172 4581 
L 2631 4581 
L 2631 1613 
L 3250 1613 
L 3250 1097 
L 2631 1097 
L 2631 0 
L 2069 0 
z
M 2069 1613 
L 2069 3678 
L 634 1613 
L 2069 1613 
z
" transform="scale(0.015625)"/>
       </defs>
       <use xlink:href="#ArialMT-32"/>
       <use xlink:href="#ArialMT-30" transform="translate(55.615234 0)"/>
       <use xlink:href="#ArialMT-32" transform="translate(111.230469 0)"/>
       <use xlink:href="#ArialMT-34" transform="translate(166.845703 0)"/>
      </g>
     </g>
    </g>
    <g id="xtick_6">
     <g id="line2d_11">
      <path d="M 1046.839807 473.971563 
L 1046.839807 23.391562 
" clip-path="url(#p337c9e1828)" style="fill: none; stroke: #e2e8f0; stroke-width: 0.5; stroke-linecap: round"/>
     </g>
     <g id="line2d_12"/>
     <g id="text_6">
      <!-- 2026 -->
      <g style="fill: #262626" transform="translate(1034.605745 485.345156) scale(0.11 -0.11)">
       <use xlink:href="#ArialMT-32"/>
       <use xlink:href="#ArialMT-30" transform="translate(55.615234 0)"/>
       <use xlink:href="#ArialMT-32" transform="translate(111.230469 0)"/>
       <use xlink:href="#ArialMT-36" transform="translate(166.845703 0)"/>
      </g>
     </g>
    </g>
   </g>
   <g id="matplotlib.axis_2">
    <g id="ytick_1">
     <g id="line2d_13">
      <path d="M 49.227969 419.573224 
L 1135.407969 419.573224 
" clip-path="url(#p337c9e1828)" style="fill: none; stroke: #e2e8f0; stroke-width: 0.5; stroke-linecap: round"/>
     </g>
     <g id="line2d_14"/>
     <g id="text_7">
      <!-- 200 -->
      <g style="fill: #262626" transform="translate(27.376875 423.510021) scale(0.11 -0.11)">
       <use xlink:href="#ArialMT-32"/>
       <use xlink:href="#ArialMT-30" transform="translate(55.615234 0)"/>
       <use xlink:href="#ArialMT-30" transform="translate(111.230469 0)"/>
      </g>
     </g>
    </g>
    <g id="ytick_2">
     <g id="line2d_15">
      <path d="M 49.227969 332.605458 
L 1135.407969 332.605458 
" clip-path="url(#p337c9e1828)" style="fill: none; stroke: #e2e8f0; stroke-width: 0.5; stroke-linecap: round"/>
     </g>
     <g id="line2d_16"/>
     <g id="text_8">
      <!-- 400 -->
      <g style="fill: #262626" transform="translate(27.376875 336.542254) scale(0.11 -0.11)">
       <use xlink:href="#ArialMT-34"/>
       <use xlink:href="#ArialMT-30" transform="translate(55.615234 0)"/>
       <use xlink:href="#ArialMT-30" transform="translate(111.230469 0)"/>
      </g>
     </g>
    </g>
    <g id="ytick_3">
     <g id="line2d_17">
      <path d="M 49.227969 245.637691 
L 1135.407969 245.637691 
" clip-path="url(#p337c9e1828)" style="fill: none; stroke: #e2e8f0; stroke-width: 0.5; stroke-linecap: round"/>
     </g>
     <g id="line2d_18"/>
     <g id="text_9">
      <!-- 600 -->
      <g style="fill: #262626" transform="translate(27.376875 249.574488) scale(0.11 -0.11)">
       <use xlink:href="#ArialMT-36"/>
       <use xlink:href="#ArialMT-30" transform="translate(55.615234 0)"/>
       <use xlink:href="#ArialMT-30" transform="translate(111.230469 0)"/>
      </g>
     </g>
    </g>
    <g id="ytick_4">
     <g id="line2d_19">
      <path d="M 49.227969 158.669924 
L 1135.407969 158.669924 
" clip-path="url(#p337c9e1828)" style="fill: none; stroke: #e2e8f0; stroke-width: 0.5; stroke-linecap: round"/>
     </g>
     <g id="line2d_20"/>
     <g id="text_10">
      <!-- 800 -->
      <g style="fill: #262626" transform="translate(27.376875 162.606721) scale(0.11 -0.11)">
       <use xlink:href="#ArialMT-38"/>
       <use xlink:href="#ArialMT-30" transform="translate(55.615234 0)"/>
       <use xlink:href="#ArialMT-30" transform="translate(111.230469 0)"/>
      </g>
     </g>
    </g>
    <g id="ytick_5">
     <g id="line2d_21">
      <path d="M 49.227969 71.702157 
L 1135.407969 71.702157 
" clip-path="url(#p337c9e1828)" style="fill: none; stroke: #e2e8f0; stroke-width: 0.5; stroke-linecap: round"/>
     </g>
     <g id="line2d_22"/>
     <g id="text_11">
      <!-- 1000 -->
      <g style="fill: #262626" transform="translate(21.259844 75.638954) scale(0.11 -0.11)">
       <use xlink:href="#ArialMT-31"/>
       <use xlink:href="#ArialMT-30" transform="translate(55.615234 0)"/>
       <use xlink:href="#ArialMT-30" transform="translate(111.230469 0)"/>
       <use xlink:href="#ArialMT-30" transform="translate(166.845703 0)"/>
      </g>
     </g>
    </g>
    <g id="text_12">
     <!-- First-timers -->
     <g style="fill: #262626" transform="translate(15.073594 276.174688) rotate(-90) scale(0.11 -0.11)">
      <defs>
       <path id="ArialMT-46" d="M 525 0 
L 525 4581 
L 3616 4581 
L 3616 4041 
L 1131 4041 
L 1131 2622 
L 3281 2622 
L 3281 2081 
L 1131 2081 
L 1131 0 
L 525 0 
z
" transform="scale(0.015625)"/>
       <path id="ArialMT-69" d="M 425 3934 
L 425 4581 
L 988 4581 
L 988 3934 
L 425 3934 
z
M 425 0 
L 425 3319 
L 988 3319 
L 988 0 
L 425 0 
z
" transform="scale(0.015625)"/>
       <path id="ArialMT-72" d="M 416 0 
L 416 3319 
L 922 3319 
L 922 2816 
Q 1116 3169 1280 3281 
Q 1444 3394 1641 3394 
Q 1925 3394 2219 3213 
L 2025 2691 
Q 1819 2813 1613 2813 
Q 1428 2813 1281 2702 
Q 1134 2591 1072 2394 
Q 978 2094 978 1738 
L 978 0 
L 416 0 
z
" transform="scale(0.015625)"/>
       <path id="ArialMT-73" d="M 197 991 
L 753 1078 
Q 800 744 1014 566 
Q 1228 388 1613 388 
Q 2000 388 2187 545 
Q 2375 703 2375 916 
Q 2375 1106 2209 1216 
Q 2094 1291 1634 1406 
Q 1016 1563 777 1677 
Q 538 1791 414 1992 
Q 291 2194 291 2438 
Q 291 2659 392 2848 
Q 494 3038 669 3163 
Q 800 3259 1026 3326 
Q 1253 3394 1513 3394 
Q 1903 3394 2198 3281 
Q 2494 3169 2634 2976 
Q 2775 2784 2828 2463 
L 2278 2388 
Q 2241 2644 2061 2787 
Q 1881 2931 1553 2931 
Q 1166 2931 1000 2803 
Q 834 2675 834 2503 
Q 834 2394 903 2306 
Q 972 2216 1119 2156 
Q 1203 2125 1616 2013 
Q 2213 1853 2448 1751 
Q 2684 1650 2818 1456 
Q 2953 1263 2953 975 
Q 2953 694 2789 445 
Q 2625 197 2315 61 
Q 2006 -75 1616 -75 
Q 969 -75 630 194 
Q 291 463 197 991 
z
" transform="scale(0.015625)"/>
       <path id="ArialMT-74" d="M 1650 503 
L 1731 6 
Q 1494 -44 1306 -44 
Q 1000 -44 831 53 
Q 663 150 594 308 
Q 525 466 525 972 
L 525 2881 
L 113 2881 
L 113 3319 
L 525 3319 
L 525 4141 
L 1084 4478 
L 1084 3319 
L 1650 3319 
L 1650 2881 
L 1084 2881 
L 1084 941 
Q 1084 700 1114 631 
Q 1144 563 1211 522 
Q 1278 481 1403 481 
Q 1497 481 1650 503 
z
" transform="scale(0.015625)"/>
       <path id="ArialMT-2d" d="M 203 1375 
L 203 1941 
L 1931 1941 
L 1931 1375 
L 203 1375 
z
" transform="scale(0.015625)"/>
       <path id="ArialMT-6d" d="M 422 0 
L 422 3319 
L 925 3319 
L 925 2853 
Q 1081 3097 1340 3245 
Q 1600 3394 1931 3394 
Q 2300 3394 2536 3241 
Q 2772 3088 2869 2813 
Q 3263 3394 3894 3394 
Q 4388 3394 4653 3120 
Q 4919 2847 4919 2278 
L 4919 0 
L 4359 0 
L 4359 2091 
Q 4359 2428 4304 2576 
Q 4250 2725 4106 2815 
Q 3963 2906 3769 2906 
Q 3419 2906 3187 2673 
Q 2956 2441 2956 1928 
L 2956 0 
L 2394 0 
L 2394 2156 
Q 2394 2531 2256 2718 
Q 2119 2906 1806 2906 
Q 1569 2906 1367 2781 
Q 1166 2656 1075 2415 
Q 984 2175 984 1722 
L 984 0 
L 422 0 
z
" transform="scale(0.015625)"/>
       <path id="ArialMT-65" d="M 2694 1069 
L 3275 997 
Q 3138 488 2766 206 
Q 2394 -75 1816 -75 
Q 1088 -75 661 373 
Q 234 822 234 1631 
Q 234 2469 665 2931 
Q 1097 3394 1784 3394 
Q 2450 3394 2872 2941 
Q 3294 2488 3294 1666 
Q 3294 1616 3291 1516 
L 816 1516 
Q 847 969 1125 678 
Q 1403 388 1819 388 
Q 2128 388 2347 550 
Q 2566 713 2694 1069 
z
M 847 1978 
L 2700 1978 
Q 2663 2397 2488 2606 
Q 2219 2931 1791 2931 
Q 1403 2931 1139 2672 
Q 875 2413 847 1978 
z
" transform="scale(0.015625)"/>
      </defs>
      <use xlink:href="#ArialMT-46"/>
      <use xlink:href="#ArialMT-69" transform="translate(61.083984 0)"/>
      <use xlink:href="#ArialMT-72" transform="translate(83.300781 0)"/>
      <use xlink:href="#ArialMT-73" transform="translate(116.601562 0)"/>
      <use xlink:href="#ArialMT-74" transform="translate(166.601562 0)"/>
      <use xlink:href="#ArialMT-2d" transform="translate(194.384766 0)"/>
      <use xlink:href="#ArialMT-74" transform="translate(227.685547 0)"/>
      <use xlink:href="#ArialMT-69" transform="translate(255.46875 0)"/>
      <use xlink:href="#ArialMT-6d" transform="translate(277.685547 0)"/>
      <use xlink:href="#ArialMT-65" transform="translate(360.986328 0)"/>
      <use xlink:href="#ArialMT-72" transform="translate(416.601562 0)"/>
      <use xlink:href="#ArialMT-73" transform="translate(449.902344 0)"/>
     </g>
    </g>
   </g>
   <g id="FillBetweenPolyCollection_1">
    <path d="M 706.792058 418.790573 
L 706.792058 406.09322 
L 714.579411 398.70096 
L 722.626343 393.482894 
L 730.673274 375.219663 
L 738.460627 128.666044 
L 746.507559 396.961605 
L 754.294912 377.828696 
L 762.341843 363.913854 
L 770.388775 386.960312 
L 777.656971 373.480308 
L 785.703902 390.439022 
L 793.491255 397.396444 
L 801.538187 413.920319 
L 809.32554 403.049349 
L 817.372471 402.179671 
L 817.372471 413.951661 
L 817.372471 413.951661 
L 809.32554 414.55237 
L 801.538187 414.531138 
L 793.491255 411.553968 
L 785.703902 419.440694 
L 777.656971 404.158527 
L 770.388775 415.814599 
L 762.341843 395.638106 
L 754.294912 423.578878 
L 746.507559 416.384119 
L 738.460627 275.174654 
L 730.673274 409.819059 
L 722.626343 418.211096 
L 714.579411 418.811804 
L 706.792058 418.790573 
z
" clip-path="url(#p337c9e1828)" style="fill: #16a34a; fill-opacity: 0.2; stroke: #16a34a; stroke-opacity: 0.2"/>
    <path d="M 841.253687 412.124684 
L 841.253687 403.484187 
L 849.04104 410.00677 
L 849.04104 419.319444 
L 849.04104 419.319444 
L 841.253687 412.124684 
z
" clip-path="url(#p337c9e1828)" style="fill: #16a34a; fill-opacity: 0.2; stroke: #16a34a; stroke-opacity: 0.2"/>
    <path d="M 865.134903 411.555165 
L 865.134903 405.223543 
L 872.662678 358.260949 
L 880.709609 370.001597 
L 888.496962 392.613217 
L 896.543894 404.788704 
L 904.331247 386.090634 
L 912.378178 386.525473 
L 920.42511 388.264828 
L 920.42511 401.30019 
L 920.42511 401.30019 
L 912.378178 409.692227 
L 904.331247 410.292935 
L 896.543894 410.271704 
L 888.496962 407.294533 
L 880.709609 415.18126 
L 872.662678 399.899092 
L 865.134903 411.555165 
z
" clip-path="url(#p337c9e1828)" style="fill: #16a34a; fill-opacity: 0.2; stroke: #16a34a; stroke-opacity: 0.2"/>
    <path d="M 936.259394 407.86525 
L 936.259394 403.049349 
L 944.046747 396.526766 
L 952.093679 339.997718 
L 960.14061 340.432557 
L 967.408806 323.908681 
L 975.455738 356.086755 
L 983.243091 359.565465 
L 991.290022 375.654502 
L 999.077375 361.304821 
L 1007.124307 351.303527 
L 1015.171238 375.654502 
L 1022.958591 259.117695 
L 1031.005523 339.12804 
L 1038.792876 349.999011 
L 1046.839807 296.513834 
L 1054.886738 277.815764 
L 1062.154935 43.872472 
L 1070.201866 150.407986 
L 1077.989219 125.187334 
L 1086.036151 369.566758 
L 1086.036151 401.752835 
L 1086.036151 401.752835 
L 1077.989219 398.775664 
L 1070.201866 406.662391 
L 1062.154935 391.380223 
L 1054.886738 403.036296 
L 1046.839807 382.859802 
L 1038.792876 410.800575 
L 1031.005523 403.605815 
L 1022.958591 262.396351 
L 1015.171238 397.040756 
L 1007.124307 405.432792 
L 999.077375 406.033501 
L 991.290022 406.012269 
L 983.243091 403.035099 
L 975.455738 410.921825 
L 967.408806 395.639658 
L 960.14061 407.29573 
L 952.093679 387.119237 
L 944.046747 415.060009 
L 936.259394 407.86525 
z
" clip-path="url(#p337c9e1828)" style="fill: #16a34a; fill-opacity: 0.2; stroke: #16a34a; stroke-opacity: 0.2"/>
   </g>
   <g id="FillBetweenPolyCollection_2">
    <path d="M 825.419403 405.559625 
L 825.419403 406.09322 
L 833.206756 272.597698 
L 833.206756 270.91522 
L 833.206756 270.91522 
L 825.419403 405.559625 
z
" clip-path="url(#p337c9e1828)" style="fill: #dc2626; fill-opacity: 0.2; stroke: #dc2626; stroke-opacity: 0.2"/>
    <path d="M 857.087972 391.378671 
L 857.087972 392.178378 
L 857.087972 391.378671 
L 857.087972 391.378671 
z
" clip-path="url(#p337c9e1828)" style="fill: #dc2626; fill-opacity: 0.2; stroke: #dc2626; stroke-opacity: 0.2"/>
    <path d="M 928.212463 266.655785 
L 928.212463 309.558999 
L 928.212463 266.655785 
L 928.212463 266.655785 
z
" clip-path="url(#p337c9e1828)" style="fill: #dc2626; fill-opacity: 0.2; stroke: #dc2626; stroke-opacity: 0.2"/>
   </g>
   <g id="line2d_23">
    <path d="M 98.599787 422.182257 
L 106.646718 425.660968 
L 114.174493 433.053228 
L 122.221424 430.009356 
L 130.008777 437.401617 
L 138.055709 448.272587 
L 145.843062 440.445488 
L 153.889993 425.226129 
L 161.936925 435.662261 
L 169.724278 406.09322 
L 177.771209 435.662261 
L 185.558562 437.836455 
L 193.605494 408.267415 
L 201.652425 446.533232 
L 208.920621 429.139679 
L 216.967553 430.444195 
L 224.754906 431.313873 
L 232.801837 449.577104 
L 240.58919 453.490653 
L 248.636122 434.357745 
L 256.683053 416.964191 
L 264.470406 371.740953 
L 272.517338 425.226129 
L 280.304691 442.619683 
L 288.351622 416.529353 
L 296.398554 439.575811 
L 303.66675 437.836455 
L 311.713681 424.79129 
L 319.501034 429.574518 
L 327.547966 445.228716 
L 335.335319 437.401617 
L 343.38225 430.444195 
L 351.429182 436.966778 
L 359.216535 377.393857 
L 367.263466 423.486774 
L 375.050819 441.750005 
L 383.097751 413.050642 
L 391.144682 432.618389 
L 398.412878 413.050642 
L 406.45981 424.356452 
L 414.247163 416.529353 
L 422.294094 429.139679 
L 430.081447 423.921613 
L 438.128379 432.183551 
L 446.17531 440.01065 
L 453.962663 276.076409 
L 462.009595 419.138386 
L 469.796948 436.0971 
L 477.843879 415.224836 
L 485.890811 432.618389 
L 493.418585 391.3087 
L 501.465517 403.919026 
L 509.25287 405.223543 
L 517.299801 413.050642 
L 525.087154 411.746125 
L 533.134086 407.832576 
L 541.181017 396.091927 
L 548.96837 199.109935 
L 557.015302 400.440316 
L 564.802655 426.965485 
L 572.849586 413.920319 
L 580.896518 406.962898 
L 588.164714 414.355158 
L 596.211645 415.224836 
L 603.998998 419.138386 
L 612.04593 419.573224 
L 619.833283 422.182257 
L 627.880214 423.921613 
L 635.927146 414.789997 
L 643.714499 301.297061 
L 651.76143 428.70484 
L 659.548783 426.530646 
L 667.595715 390.004184 
L 675.642646 419.138386 
L 682.910842 404.788704 
L 690.957774 428.270001 
L 698.745127 413.050642 
" clip-path="url(#p337c9e1828)" style="fill: none; stroke: #2563eb; stroke-width: 1.5; stroke-linecap: round"/>
   </g>
   <g id="line2d_24">
    <path d="M 706.792058 406.09322 
L 714.579411 398.70096 
L 722.626343 393.482894 
L 730.673274 375.219663 
L 738.460627 128.666044 
L 746.507559 396.961605 
L 754.294912 377.828696 
L 762.341843 363.913854 
L 770.388775 386.960312 
L 777.656971 373.480308 
L 785.703902 390.439022 
L 793.491255 397.396444 
L 801.538187 413.920319 
L 809.32554 403.049349 
L 817.372471 402.179671 
L 825.419403 406.09322 
L 833.206756 272.597698 
L 841.253687 403.484187 
L 849.04104 410.00677 
L 857.087972 392.178378 
L 865.134903 405.223543 
L 872.662678 358.260949 
L 880.709609 370.001597 
L 888.496962 392.613217 
L 896.543894 404.788704 
L 904.331247 386.090634 
L 912.378178 386.525473 
L 920.42511 388.264828 
L 928.212463 309.558999 
L 936.259394 403.049349 
L 944.046747 396.526766 
L 952.093679 339.997718 
L 960.14061 340.432557 
L 967.408806 323.908681 
L 975.455738 356.086755 
L 983.243091 359.565465 
L 991.290022 375.654502 
L 999.077375 361.304821 
L 1007.124307 351.303527 
L 1015.171238 375.654502 
L 1022.958591 259.117695 
L 1031.005523 339.12804 
L 1038.792876 349.999011 
L 1046.839807 296.513834 
L 1054.886738 277.815764 
L 1062.154935 43.872472 
L 1070.201866 150.407986 
L 1077.989219 125.187334 
L 1086.036151 369.566758 
" clip-path="url(#p337c9e1828)" style="fill: none; stroke: #2563eb; stroke-width: 1.5; stroke-linecap: round"/>
   </g>
   <g id="line2d_25">
    <path d="M 706.792058 418.790573 
L 714.579411 418.811804 
L 722.626343 418.211096 
L 730.673274 409.819059 
L 738.460627 275.174654 
L 746.507559 416.384119 
L 754.294912 423.578878 
L 762.341843 395.638106 
L 770.388775 415.814599 
L 777.656971 404.158527 
L 785.703902 419.440694 
L 793.491255 411.553968 
L 801.538187 414.531138 
L 809.32554 414.55237 
L 817.372471 413.951661 
L 825.419403 405.559625 
L 833.206756 270.91522 
L 841.253687 412.124684 
L 849.04104 419.319444 
L 857.087972 391.378671 
L 865.134903 411.555165 
L 872.662678 399.899092 
L 880.709609 415.18126 
L 888.496962 407.294533 
L 896.543894 410.271704 
L 904.331247 410.292935 
L 912.378178 409.692227 
L 920.42511 401.30019 
L 928.212463 266.655785 
L 936.259394 407.86525 
L 944.046747 415.060009 
L 952.093679 387.119237 
L 960.14061 407.29573 
L 967.408806 395.639658 
L 975.455738 410.921825 
L 983.243091 403.035099 
L 991.290022 406.012269 
L 999.077375 406.033501 
L 1007.124307 405.432792 
L 1015.171238 397.040756 
L 1022.958591 262.396351 
L 1031.005523 403.605815 
L 1038.792876 410.800575 
L 1046.839807 382.859802 
L 1054.886738 403.036296 
L 1062.154935 391.380223 
L 1070.201866 406.662391 
L 1077.989219 398.775664 
L 1086.036151 401.752835 
" clip-path="url(#p337c9e1828)" style="fill: none; stroke-dasharray: 7.4,3.2; stroke-dashoffset: 0; stroke: #dc2626; stroke-width: 2"/>
   </g>
   <g id="line2d_26">
    <path d="M 706.792058 473.971563 
L 706.792058 23.391562 
" clip-path="url(#p337c9e1828)" style="fill: none; stroke-dasharray: 1.5,2.475; stroke-dashoffset: 0; stroke: #64748b; stroke-opacity: 0.8; stroke-width: 1.5"/>
   </g>
   <g id="patch_3">
    <path d="M 49.227969 473.971563 
L 49.227969 23.391562 
" style="fill: none; stroke: #64748b; stroke-width: 0.8; stroke-linejoin: miter; stroke-linecap: square"/>
   </g>
   <g id="patch_4">
    <path d="M 1135.407969 473.971563 
L 1135.407969 23.391562 
" style="fill: none; stroke: #64748b; stroke-width: 0.8; stroke-linejoin: miter; stroke-linecap: square"/>
   </g>
   <g id="patch_5">
    <path d="M 49.227969 473.971563 
L 1135.407969 473.971563 
" style="fill: none; stroke: #64748b; stroke-width: 0.8; stroke-linejoin: miter; stroke-linecap: square"/>
   </g>
   <g id="patch_6">
    <path d="M 49.227969 23.391562 
L 1135.407969 23.391562 
" style="fill: none; stroke: #64748b; stroke-width: 0.8; stroke-linejoin: miter; stroke-linecap: square"/>
   </g>
   <g id="text_13">
    <!--   Copilot GA -->
    <g style="fill: #64748b" transform="translate(706.792058 54.828721) scale(0.1 -0.1)">
     <defs>
      <path id="ArialMT-20" transform="scale(0.015625)"/>
      <path id="ArialMT-43" d="M 3763 1606 
L 4369 1453 
Q 4178 706 3683 314 
Q 3188 -78 2472 -78 
Q 1731 -78 1267 223 
Q 803 525 561 1097 
Q 319 1669 319 2325 
Q 319 3041 592 3573 
Q 866 4106 1370 4382 
Q 1875 4659 2481 4659 
Q 3169 4659 3637 4309 
Q 4106 3959 4291 3325 
L 3694 3184 
Q 3534 3684 3231 3912 
Q 2928 4141 2469 4141 
Q 1941 4141 1586 3887 
Q 1231 3634 1087 3207 
Q 944 2781 944 2328 
Q 944 1744 1114 1308 
Q 1284 872 1643 656 
Q 2003 441 2422 441 
Q 2931 441 3284 734 
Q 3638 1028 3763 1606 
z
" transform="scale(0.015625)"/>
      <path id="ArialMT-6f" d="M 213 1659 
Q 213 2581 725 3025 
Q 1153 3394 1769 3394 
Q 2453 3394 2887 2945 
Q 3322 2497 3322 1706 
Q 3322 1066 3130 698 
Q 2938 331 2570 128 
Q 2203 -75 1769 -75 
Q 1072 -75 642 372 
Q 213 819 213 1659 
z
M 791 1659 
Q 791 1022 1069 705 
Q 1347 388 1769 388 
Q 2188 388 2466 706 
Q 2744 1025 2744 1678 
Q 2744 2294 2464 2611 
Q 2184 2928 1769 2928 
Q 1347 2928 1069 2612 
Q 791 2297 791 1659 
z
" transform="scale(0.015625)"/>
      <path id="ArialMT-70" d="M 422 -1272 
L 422 3319 
L 934 3319 
L 934 2888 
Q 1116 3141 1344 3267 
Q 1572 3394 1897 3394 
Q 2322 3394 2647 3175 
Q 2972 2956 3137 2557 
Q 3303 2159 3303 1684 
Q 3303 1175 3120 767 
Q 2938 359 2589 142 
Q 2241 -75 1856 -75 
Q 1575 -75 1351 44 
Q 1128 163 984 344 
L 984 -1272 
L 422 -1272 
z
M 931 1641 
Q 931 1000 1190 694 
Q 1450 388 1819 388 
Q 2194 388 2461 705 
Q 2728 1022 2728 1688 
Q 2728 2322 2467 2637 
Q 2206 2953 1844 2953 
Q 1484 2953 1207 2617 
Q 931 2281 931 1641 
z
" transform="scale(0.015625)"/>
      <path id="ArialMT-6c" d="M 409 0 
L 409 4581 
L 972 4581 
L 972 0 
L 409 0 
z
" transform="scale(0.015625)"/>
      <path id="ArialMT-47" d="M 2638 1797 
L 2638 2334 
L 4578 2338 
L 4578 638 
Q 4131 281 3656 101 
Q 3181 -78 2681 -78 
Q 2006 -78 1454 211 
Q 903 500 622 1047 
Q 341 1594 341 2269 
Q 341 2938 620 3517 
Q 900 4097 1425 4378 
Q 1950 4659 2634 4659 
Q 3131 4659 3532 4498 
Q 3934 4338 4162 4050 
Q 4391 3763 4509 3300 
L 3963 3150 
Q 3859 3500 3706 3700 
Q 3553 3900 3268 4020 
Q 2984 4141 2638 4141 
Q 2222 4141 1919 4014 
Q 1616 3888 1430 3681 
Q 1244 3475 1141 3228 
Q 966 2803 966 2306 
Q 966 1694 1177 1281 
Q 1388 869 1791 669 
Q 2194 469 2647 469 
Q 3041 469 3416 620 
Q 3791 772 3984 944 
L 3984 1797 
L 2638 1797 
z
" transform="scale(0.015625)"/>
      <path id="ArialMT-41" d="M -9 0 
L 1750 4581 
L 2403 4581 
L 4278 0 
L 3588 0 
L 3053 1388 
L 1138 1388 
L 634 0 
L -9 0 
z
M 1313 1881 
L 2866 1881 
L 2388 3150 
Q 2169 3728 2063 4100 
Q 1975 3659 1816 3225 
L 1313 1881 
z
" transform="scale(0.015625)"/>
     </defs>
     <use xlink:href="#ArialMT-20"/>
     <use xlink:href="#ArialMT-20" transform="translate(27.783203 0)"/>
     <use xlink:href="#ArialMT-43" transform="translate(55.566406 0)"/>
     <use xlink:href="#ArialMT-6f" transform="translate(127.783203 0)"/>
     <use xlink:href="#ArialMT-70" transform="translate(183.398438 0)"/>
     <use xlink:href="#ArialMT-69" transform="translate(239.013672 0)"/>
     <use xlink:href="#ArialMT-6c" transform="translate(261.230469 0)"/>
     <use xlink:href="#ArialMT-6f" transform="translate(283.447266 0)"/>
     <use xlink:href="#ArialMT-74" transform="translate(339.0625 0)"/>
     <use xlink:href="#ArialMT-20" transform="translate(366.845703 0)"/>
     <use xlink:href="#ArialMT-47" transform="translate(394.628906 0)"/>
     <use xlink:href="#ArialMT-41" transform="translate(472.412109 0)"/>
    </g>
   </g>
   <g id="text_14">
    <!-- Monthly First-Timers: Actual vs Counterfactual (no AI) -->
    <g style="fill: #262626" transform="translate(412.909063 17.391562) scale(0.14 -0.14)">
     <defs>
      <path id="Arial-BoldMT-4d" d="M 453 0 
L 453 4581 
L 1838 4581 
L 2669 1456 
L 3491 4581 
L 4878 4581 
L 4878 0 
L 4019 0 
L 4019 3606 
L 3109 0 
L 2219 0 
L 1313 3606 
L 1313 0 
L 453 0 
z
" transform="scale(0.015625)"/>
      <path id="Arial-BoldMT-6f" d="M 256 1706 
Q 256 2144 472 2553 
Q 688 2963 1083 3178 
Q 1478 3394 1966 3394 
Q 2719 3394 3200 2905 
Q 3681 2416 3681 1669 
Q 3681 916 3195 420 
Q 2709 -75 1972 -75 
Q 1516 -75 1102 131 
Q 688 338 472 736 
Q 256 1134 256 1706 
z
M 1156 1659 
Q 1156 1166 1390 903 
Q 1625 641 1969 641 
Q 2313 641 2545 903 
Q 2778 1166 2778 1666 
Q 2778 2153 2545 2415 
Q 2313 2678 1969 2678 
Q 1625 2678 1390 2415 
Q 1156 2153 1156 1659 
z
" transform="scale(0.015625)"/>
      <path id="Arial-BoldMT-6e" d="M 3478 0 
L 2600 0 
L 2600 1694 
Q 2600 2231 2544 2389 
Q 2488 2547 2361 2634 
Q 2234 2722 2056 2722 
Q 1828 2722 1647 2597 
Q 1466 2472 1398 2265 
Q 1331 2059 1331 1503 
L 1331 0 
L 453 0 
L 453 3319 
L 1269 3319 
L 1269 2831 
Q 1703 3394 2363 3394 
Q 2653 3394 2893 3289 
Q 3134 3184 3257 3021 
Q 3381 2859 3429 2653 
Q 3478 2447 3478 2063 
L 3478 0 
z
" transform="scale(0.015625)"/>
      <path id="Arial-BoldMT-74" d="M 1981 3319 
L 1981 2619 
L 1381 2619 
L 1381 1281 
Q 1381 875 1398 808 
Q 1416 741 1477 697 
Q 1538 653 1625 653 
Q 1747 653 1978 738 
L 2053 56 
Q 1747 -75 1359 -75 
Q 1122 -75 931 4 
Q 741 84 652 211 
Q 563 338 528 553 
Q 500 706 500 1172 
L 500 2619 
L 97 2619 
L 97 3319 
L 500 3319 
L 500 3978 
L 1381 4491 
L 1381 3319 
L 1981 3319 
z
" transform="scale(0.015625)"/>
      <path id="Arial-BoldMT-68" d="M 1334 4581 
L 1334 2897 
Q 1759 3394 2350 3394 
Q 2653 3394 2897 3281 
Q 3141 3169 3264 2994 
Q 3388 2819 3433 2606 
Q 3478 2394 3478 1947 
L 3478 0 
L 2600 0 
L 2600 1753 
Q 2600 2275 2550 2415 
Q 2500 2556 2373 2639 
Q 2247 2722 2056 2722 
Q 1838 2722 1666 2615 
Q 1494 2509 1414 2295 
Q 1334 2081 1334 1663 
L 1334 0 
L 456 0 
L 456 4581 
L 1334 4581 
z
" transform="scale(0.015625)"/>
      <path id="Arial-BoldMT-6c" d="M 459 0 
L 459 4581 
L 1338 4581 
L 1338 0 
L 459 0 
z
" transform="scale(0.015625)"/>
      <path id="Arial-BoldMT-79" d="M 44 3319 
L 978 3319 
L 1772 963 
L 2547 3319 
L 3456 3319 
L 2284 125 
L 2075 -453 
Q 1959 -744 1854 -897 
Q 1750 -1050 1614 -1145 
Q 1478 -1241 1279 -1294 
Q 1081 -1347 831 -1347 
Q 578 -1347 334 -1294 
L 256 -606 
Q 463 -647 628 -647 
Q 934 -647 1081 -467 
Q 1228 -288 1306 -9 
L 44 3319 
z
" transform="scale(0.015625)"/>
      <path id="Arial-BoldMT-20" transform="scale(0.015625)"/>
      <path id="Arial-BoldMT-46" d="M 472 0 
L 472 4581 
L 3613 4581 
L 3613 3806 
L 1397 3806 
L 1397 2722 
L 3309 2722 
L 3309 1947 
L 1397 1947 
L 1397 0 
L 472 0 
z
" transform="scale(0.015625)"/>
      <path id="Arial-BoldMT-69" d="M 459 3769 
L 459 4581 
L 1338 4581 
L 1338 3769 
L 459 3769 
z
M 459 0 
L 459 3319 
L 1338 3319 
L 1338 0 
L 459 0 
z
" transform="scale(0.015625)"/>
      <path id="Arial-BoldMT-72" d="M 1300 0 
L 422 0 
L 422 3319 
L 1238 3319 
L 1238 2847 
Q 1447 3181 1614 3287 
Q 1781 3394 1994 3394 
Q 2294 3394 2572 3228 
L 2300 2463 
Q 2078 2606 1888 2606 
Q 1703 2606 1575 2504 
Q 1447 2403 1373 2137 
Q 1300 1872 1300 1025 
L 1300 0 
z
" transform="scale(0.015625)"/>
      <path id="Arial-BoldMT-73" d="M 150 947 
L 1031 1081 
Q 1088 825 1259 692 
Q 1431 559 1741 559 
Q 2081 559 2253 684 
Q 2369 772 2369 919 
Q 2369 1019 2306 1084 
Q 2241 1147 2013 1200 
Q 950 1434 666 1628 
Q 272 1897 272 2375 
Q 272 2806 612 3100 
Q 953 3394 1669 3394 
Q 2350 3394 2681 3172 
Q 3013 2950 3138 2516 
L 2309 2363 
Q 2256 2556 2107 2659 
Q 1959 2763 1684 2763 
Q 1338 2763 1188 2666 
Q 1088 2597 1088 2488 
Q 1088 2394 1175 2328 
Q 1294 2241 1995 2081 
Q 2697 1922 2975 1691 
Q 3250 1456 3250 1038 
Q 3250 581 2869 253 
Q 2488 -75 1741 -75 
Q 1063 -75 667 200 
Q 272 475 150 947 
z
" transform="scale(0.015625)"/>
      <path id="Arial-BoldMT-2d" d="M 359 1222 
L 359 2100 
L 2084 2100 
L 2084 1222 
L 359 1222 
z
" transform="scale(0.015625)"/>
      <path id="Arial-BoldMT-54" d="M 1497 0 
L 1497 3806 
L 138 3806 
L 138 4581 
L 3778 4581 
L 3778 3806 
L 2422 3806 
L 2422 0 
L 1497 0 
z
" transform="scale(0.015625)"/>
      <path id="Arial-BoldMT-6d" d="M 394 3319 
L 1203 3319 
L 1203 2866 
Q 1638 3394 2238 3394 
Q 2556 3394 2790 3262 
Q 3025 3131 3175 2866 
Q 3394 3131 3647 3262 
Q 3900 3394 4188 3394 
Q 4553 3394 4806 3245 
Q 5059 3097 5184 2809 
Q 5275 2597 5275 2122 
L 5275 0 
L 4397 0 
L 4397 1897 
Q 4397 2391 4306 2534 
Q 4184 2722 3931 2722 
Q 3747 2722 3584 2609 
Q 3422 2497 3350 2280 
Q 3278 2063 3278 1594 
L 3278 0 
L 2400 0 
L 2400 1819 
Q 2400 2303 2353 2443 
Q 2306 2584 2207 2653 
Q 2109 2722 1941 2722 
Q 1738 2722 1575 2612 
Q 1413 2503 1342 2297 
Q 1272 2091 1272 1613 
L 1272 0 
L 394 0 
L 394 3319 
z
" transform="scale(0.015625)"/>
      <path id="Arial-BoldMT-65" d="M 2381 1056 
L 3256 909 
Q 3088 428 2723 176 
Q 2359 -75 1813 -75 
Q 947 -75 531 491 
Q 203 944 203 1634 
Q 203 2459 634 2926 
Q 1066 3394 1725 3394 
Q 2466 3394 2894 2905 
Q 3322 2416 3303 1406 
L 1103 1406 
Q 1113 1016 1316 798 
Q 1519 581 1822 581 
Q 2028 581 2168 693 
Q 2309 806 2381 1056 
z
M 2431 1944 
Q 2422 2325 2234 2523 
Q 2047 2722 1778 2722 
Q 1491 2722 1303 2513 
Q 1116 2303 1119 1944 
L 2431 1944 
z
" transform="scale(0.015625)"/>
      <path id="Arial-BoldMT-3a" d="M 628 2441 
L 628 3319 
L 1506 3319 
L 1506 2441 
L 628 2441 
z
M 628 0 
L 628 878 
L 1506 878 
L 1506 0 
L 628 0 
z
" transform="scale(0.015625)"/>
      <path id="Arial-BoldMT-41" d="M 4597 0 
L 3591 0 
L 3191 1041 
L 1359 1041 
L 981 0 
L 0 0 
L 1784 4581 
L 2763 4581 
L 4597 0 
z
M 2894 1813 
L 2263 3513 
L 1644 1813 
L 2894 1813 
z
" transform="scale(0.015625)"/>
      <path id="Arial-BoldMT-63" d="M 3353 2338 
L 2488 2181 
Q 2444 2441 2289 2572 
Q 2134 2703 1888 2703 
Q 1559 2703 1364 2476 
Q 1169 2250 1169 1719 
Q 1169 1128 1367 884 
Q 1566 641 1900 641 
Q 2150 641 2309 783 
Q 2469 925 2534 1272 
L 3397 1125 
Q 3263 531 2881 228 
Q 2500 -75 1859 -75 
Q 1131 -75 698 384 
Q 266 844 266 1656 
Q 266 2478 700 2936 
Q 1134 3394 1875 3394 
Q 2481 3394 2839 3133 
Q 3197 2872 3353 2338 
z
" transform="scale(0.015625)"/>
      <path id="Arial-BoldMT-75" d="M 2644 0 
L 2644 497 
Q 2463 231 2167 78 
Q 1872 -75 1544 -75 
Q 1209 -75 943 72 
Q 678 219 559 484 
Q 441 750 441 1219 
L 441 3319 
L 1319 3319 
L 1319 1794 
Q 1319 1094 1367 936 
Q 1416 778 1544 686 
Q 1672 594 1869 594 
Q 2094 594 2272 717 
Q 2450 841 2515 1023 
Q 2581 1206 2581 1919 
L 2581 3319 
L 3459 3319 
L 3459 0 
L 2644 0 
z
" transform="scale(0.015625)"/>
      <path id="Arial-BoldMT-61" d="M 1116 2306 
L 319 2450 
Q 453 2931 781 3162 
Q 1109 3394 1756 3394 
Q 2344 3394 2631 3255 
Q 2919 3116 3036 2902 
Q 3153 2688 3153 2116 
L 3144 1091 
Q 3144 653 3186 445 
Q 3228 238 3344 0 
L 2475 0 
Q 2441 88 2391 259 
Q 2369 338 2359 363 
Q 2134 144 1878 34 
Q 1622 -75 1331 -75 
Q 819 -75 523 203 
Q 228 481 228 906 
Q 228 1188 362 1408 
Q 497 1628 739 1745 
Q 981 1863 1438 1950 
Q 2053 2066 2291 2166 
L 2291 2253 
Q 2291 2506 2166 2614 
Q 2041 2722 1694 2722 
Q 1459 2722 1328 2630 
Q 1197 2538 1116 2306 
z
M 2291 1594 
Q 2122 1538 1756 1459 
Q 1391 1381 1278 1306 
Q 1106 1184 1106 997 
Q 1106 813 1243 678 
Q 1381 544 1594 544 
Q 1831 544 2047 700 
Q 2206 819 2256 991 
Q 2291 1103 2291 1419 
L 2291 1594 
z
" transform="scale(0.015625)"/>
      <path id="Arial-BoldMT-76" d="M 1372 0 
L 34 3319 
L 956 3319 
L 1581 1625 
L 1763 1059 
Q 1834 1275 1853 1344 
Q 1897 1484 1947 1625 
L 2578 3319 
L 3481 3319 
L 2163 0 
L 1372 0 
z
" transform="scale(0.015625)"/>
      <path id="Arial-BoldMT-43" d="M 3397 1684 
L 4294 1400 
Q 4088 650 3608 286 
Q 3128 -78 2391 -78 
Q 1478 -78 890 545 
Q 303 1169 303 2250 
Q 303 3394 893 4026 
Q 1484 4659 2447 4659 
Q 3288 4659 3813 4163 
Q 4125 3869 4281 3319 
L 3366 3100 
Q 3284 3456 3026 3662 
Q 2769 3869 2400 3869 
Q 1891 3869 1573 3503 
Q 1256 3138 1256 2319 
Q 1256 1450 1568 1081 
Q 1881 713 2381 713 
Q 2750 713 3015 947 
Q 3281 1181 3397 1684 
z
" transform="scale(0.015625)"/>
      <path id="Arial-BoldMT-66" d="M 75 3319 
L 563 3319 
L 563 3569 
Q 563 3988 652 4194 
Q 741 4400 980 4529 
Q 1219 4659 1584 4659 
Q 1959 4659 2319 4547 
L 2200 3934 
Q 1991 3984 1797 3984 
Q 1606 3984 1523 3895 
Q 1441 3806 1441 3553 
L 1441 3319 
L 2097 3319 
L 2097 2628 
L 1441 2628 
L 1441 0 
L 563 0 
L 563 2628 
L 75 2628 
L 75 3319 
z
" transform="scale(0.015625)"/>
      <path id="Arial-BoldMT-28" d="M 1916 -1347 
L 1313 -1347 
Q 834 -625 584 153 
Q 334 931 334 1659 
Q 334 2563 644 3369 
Q 913 4069 1325 4659 
L 1925 4659 
Q 1497 3713 1336 3048 
Q 1175 2384 1175 1641 
Q 1175 1128 1270 590 
Q 1366 53 1531 -431 
Q 1641 -750 1916 -1347 
z
" transform="scale(0.015625)"/>
      <path id="Arial-BoldMT-49" d="M 438 0 
L 438 4581 
L 1363 4581 
L 1363 0 
L 438 0 
z
" transform="scale(0.015625)"/>
      <path id="Arial-BoldMT-29" d="M 216 -1347 
Q 475 -791 581 -494 
Q 688 -197 778 190 
Q 869 578 912 926 
Q 956 1275 956 1641 
Q 956 2384 797 3048 
Q 638 3713 209 4659 
L 806 4659 
Q 1278 3988 1539 3234 
Q 1800 2481 1800 1706 
Q 1800 1053 1594 306 
Q 1359 -531 822 -1347 
L 216 -1347 
z
" transform="scale(0.015625)"/>
     </defs>
     <use xlink:href="#Arial-BoldMT-4d"/>
     <use xlink:href="#Arial-BoldMT-6f" transform="translate(83.300781 0)"/>
     <use xlink:href="#Arial-BoldMT-6e" transform="translate(144.384766 0)"/>
     <use xlink:href="#Arial-BoldMT-74" transform="translate(205.46875 0)"/>
     <use xlink:href="#Arial-BoldMT-68" transform="translate(238.769531 0)"/>
     <use xlink:href="#Arial-BoldMT-6c" transform="translate(299.853516 0)"/>
     <use xlink:href="#Arial-BoldMT-79" transform="translate(327.636719 0)"/>
     <use xlink:href="#Arial-BoldMT-20" transform="translate(383.251953 0)"/>
     <use xlink:href="#Arial-BoldMT-46" transform="translate(411.035156 0)"/>
     <use xlink:href="#Arial-BoldMT-69" transform="translate(472.119141 0)"/>
     <use xlink:href="#Arial-BoldMT-72" transform="translate(499.902344 0)"/>
     <use xlink:href="#Arial-BoldMT-73" transform="translate(538.818359 0)"/>
     <use xlink:href="#Arial-BoldMT-74" transform="translate(594.433594 0)"/>
     <use xlink:href="#Arial-BoldMT-2d" transform="translate(627.734375 0)"/>
     <use xlink:href="#Arial-BoldMT-54" transform="translate(661.035156 0)"/>
     <use xlink:href="#Arial-BoldMT-69" transform="translate(720.369141 0)"/>
     <use xlink:href="#Arial-BoldMT-6d" transform="translate(748.152344 0)"/>
     <use xlink:href="#Arial-BoldMT-65" transform="translate(837.068359 0)"/>
     <use xlink:href="#Arial-BoldMT-72" transform="translate(892.683594 0)"/>
     <use xlink:href="#Arial-BoldMT-73" transform="translate(931.599609 0)"/>
     <use xlink:href="#Arial-BoldMT-3a" transform="translate(987.214844 0)"/>
     <use xlink:href="#Arial-BoldMT-20" transform="translate(1020.515625 0)"/>
     <use xlink:href="#Arial-BoldMT-41" transform="translate(1044.548828 0)"/>
     <use xlink:href="#Arial-BoldMT-63" transform="translate(1116.765625 0)"/>
     <use xlink:href="#Arial-BoldMT-74" transform="translate(1172.380859 0)"/>
     <use xlink:href="#Arial-BoldMT-75" transform="translate(1205.681641 0)"/>
     <use xlink:href="#Arial-BoldMT-61" transform="translate(1266.765625 0)"/>
     <use xlink:href="#Arial-BoldMT-6c" transform="translate(1322.380859 0)"/>
     <use xlink:href="#Arial-BoldMT-20" transform="translate(1350.164062 0)"/>
     <use xlink:href="#Arial-BoldMT-76" transform="translate(1377.947266 0)"/>
     <use xlink:href="#Arial-BoldMT-73" transform="translate(1433.5625 0)"/>
     <use xlink:href="#Arial-BoldMT-20" transform="translate(1489.177734 0)"/>
     <use xlink:href="#Arial-BoldMT-43" transform="translate(1516.960938 0)"/>
     <use xlink:href="#Arial-BoldMT-6f" transform="translate(1589.177734 0)"/>
     <use xlink:href="#Arial-BoldMT-75" transform="translate(1650.261719 0)"/>
     <use xlink:href="#Arial-BoldMT-6e" transform="translate(1711.345703 0)"/>
     <use xlink:href="#Arial-BoldMT-74" transform="translate(1772.429688 0)"/>
     <use xlink:href="#Arial-BoldMT-65" transform="translate(1805.730469 0)"/>
     <use xlink:href="#Arial-BoldMT-72" transform="translate(1861.345703 0)"/>
     <use xlink:href="#Arial-BoldMT-66" transform="translate(1900.261719 0)"/>
     <use xlink:href="#Arial-BoldMT-61" transform="translate(1933.5625 0)"/>
     <use xlink:href="#Arial-BoldMT-63" transform="translate(1989.177734 0)"/>
     <use xlink:href="#Arial-BoldMT-74" transform="translate(2044.792969 0)"/>
     <use xlink:href="#Arial-BoldMT-75" transform="translate(2078.09375 0)"/>
     <use xlink:href="#Arial-BoldMT-61" transform="translate(2139.177734 0)"/>
     <use xlink:href="#Arial-BoldMT-6c" transform="translate(2194.792969 0)"/>
     <use xlink:href="#Arial-BoldMT-20" transform="translate(2222.576172 0)"/>
     <use xlink:href="#Arial-BoldMT-28" transform="translate(2250.359375 0)"/>
     <use xlink:href="#Arial-BoldMT-6e" transform="translate(2283.660156 0)"/>
     <use xlink:href="#Arial-BoldMT-6f" transform="translate(2344.744141 0)"/>
     <use xlink:href="#Arial-BoldMT-20" transform="translate(2405.828125 0)"/>
     <use xlink:href="#Arial-BoldMT-41" transform="translate(2429.861328 0)"/>
     <use xlink:href="#Arial-BoldMT-49" transform="translate(2502.078125 0)"/>
     <use xlink:href="#Arial-BoldMT-29" transform="translate(2529.861328 0)"/>
    </g>
   </g>
   <g id="legend_1">
    <g id="patch_7">
     <path d="M 51.427969 89.456875 
L 168.555625 89.456875 
Q 170.755625 89.456875 170.755625 87.256875 
L 170.755625 25.591562 
Q 170.755625 23.391562 168.555625 23.391562 
L 51.427969 23.391562 
Q 49.227969 23.391562 49.227969 25.591562 
L 49.227969 87.256875 
Q 49.227969 89.456875 51.427969 89.456875 
z
" style="fill: #ffffff; opacity: 0.9; stroke: #cccccc; stroke-linejoin: miter"/>
    </g>
    <g id="line2d_27">
     <path d="M 53.627969 31.949219 
L 64.627969 31.949219 
L 75.627969 31.949219 
" style="fill: none; stroke: #2563eb; stroke-width: 1.5; stroke-linecap: round"/>
    </g>
    <g id="text_15">
     <!-- Actual (pre-AI) -->
     <g style="fill: #262626" transform="translate(84.427969 35.799219) scale(0.11 -0.11)">
      <defs>
       <path id="ArialMT-63" d="M 2588 1216 
L 3141 1144 
Q 3050 572 2676 248 
Q 2303 -75 1759 -75 
Q 1078 -75 664 370 
Q 250 816 250 1647 
Q 250 2184 428 2587 
Q 606 2991 970 3192 
Q 1334 3394 1763 3394 
Q 2303 3394 2647 3120 
Q 2991 2847 3088 2344 
L 2541 2259 
Q 2463 2594 2264 2762 
Q 2066 2931 1784 2931 
Q 1359 2931 1093 2626 
Q 828 2322 828 1663 
Q 828 994 1084 691 
Q 1341 388 1753 388 
Q 2084 388 2306 591 
Q 2528 794 2588 1216 
z
" transform="scale(0.015625)"/>
       <path id="ArialMT-75" d="M 2597 0 
L 2597 488 
Q 2209 -75 1544 -75 
Q 1250 -75 995 37 
Q 741 150 617 320 
Q 494 491 444 738 
Q 409 903 409 1263 
L 409 3319 
L 972 3319 
L 972 1478 
Q 972 1038 1006 884 
Q 1059 663 1231 536 
Q 1403 409 1656 409 
Q 1909 409 2131 539 
Q 2353 669 2445 892 
Q 2538 1116 2538 1541 
L 2538 3319 
L 3100 3319 
L 3100 0 
L 2597 0 
z
" transform="scale(0.015625)"/>
       <path id="ArialMT-61" d="M 2588 409 
Q 2275 144 1986 34 
Q 1697 -75 1366 -75 
Q 819 -75 525 192 
Q 231 459 231 875 
Q 231 1119 342 1320 
Q 453 1522 633 1644 
Q 813 1766 1038 1828 
Q 1203 1872 1538 1913 
Q 2219 1994 2541 2106 
Q 2544 2222 2544 2253 
Q 2544 2597 2384 2738 
Q 2169 2928 1744 2928 
Q 1347 2928 1158 2789 
Q 969 2650 878 2297 
L 328 2372 
Q 403 2725 575 2942 
Q 747 3159 1072 3276 
Q 1397 3394 1825 3394 
Q 2250 3394 2515 3294 
Q 2781 3194 2906 3042 
Q 3031 2891 3081 2659 
Q 3109 2516 3109 2141 
L 3109 1391 
Q 3109 606 3145 398 
Q 3181 191 3288 0 
L 2700 0 
Q 2613 175 2588 409 
z
M 2541 1666 
Q 2234 1541 1622 1453 
Q 1275 1403 1131 1340 
Q 988 1278 909 1158 
Q 831 1038 831 891 
Q 831 666 1001 516 
Q 1172 366 1500 366 
Q 1825 366 2078 508 
Q 2331 650 2450 897 
Q 2541 1088 2541 1459 
L 2541 1666 
z
" transform="scale(0.015625)"/>
       <path id="ArialMT-28" d="M 1497 -1347 
Q 1031 -759 709 28 
Q 388 816 388 1659 
Q 388 2403 628 3084 
Q 909 3875 1497 4659 
L 1900 4659 
Q 1522 4009 1400 3731 
Q 1209 3300 1100 2831 
Q 966 2247 966 1656 
Q 966 153 1900 -1347 
L 1497 -1347 
z
" transform="scale(0.015625)"/>
       <path id="ArialMT-49" d="M 597 0 
L 597 4581 
L 1203 4581 
L 1203 0 
L 597 0 
z
" transform="scale(0.015625)"/>
       <path id="ArialMT-29" d="M 791 -1347 
L 388 -1347 
Q 1322 153 1322 1656 
Q 1322 2244 1188 2822 
Q 1081 3291 891 3722 
Q 769 4003 388 4659 
L 791 4659 
Q 1378 3875 1659 3084 
Q 1900 2403 1900 1659 
Q 1900 816 1576 28 
Q 1253 -759 791 -1347 
z
" transform="scale(0.015625)"/>
      </defs>
      <use xlink:href="#ArialMT-41"/>
      <use xlink:href="#ArialMT-63" transform="translate(66.699219 0)"/>
      <use xlink:href="#ArialMT-74" transform="translate(116.699219 0)"/>
      <use xlink:href="#ArialMT-75" transform="translate(144.482422 0)"/>
      <use xlink:href="#ArialMT-61" transform="translate(200.097656 0)"/>
      <use xlink:href="#ArialMT-6c" transform="translate(255.712891 0)"/>
      <use xlink:href="#ArialMT-20" transform="translate(277.929688 0)"/>
      <use xlink:href="#ArialMT-28" transform="translate(305.712891 0)"/>
      <use xlink:href="#ArialMT-70" transform="translate(339.013672 0)"/>
      <use xlink:href="#ArialMT-72" transform="translate(394.628906 0)"/>
      <use xlink:href="#ArialMT-65" transform="translate(427.929688 0)"/>
      <use xlink:href="#ArialMT-2d" transform="translate(483.544922 0)"/>
      <use xlink:href="#ArialMT-41" transform="translate(516.845703 0)"/>
      <use xlink:href="#ArialMT-49" transform="translate(583.544922 0)"/>
      <use xlink:href="#ArialMT-29" transform="translate(611.328125 0)"/>
     </g>
    </g>
    <g id="line2d_28">
     <path d="M 53.627969 47.772031 
L 64.627969 47.772031 
L 75.627969 47.772031 
" style="fill: none; stroke-dasharray: 7.4,3.2; stroke-dashoffset: 0; stroke: #dc2626; stroke-width: 2"/>
    </g>
    <g id="text_16">
     <!-- Predicted (no AI) -->
     <g style="fill: #262626" transform="translate(84.427969 51.622031) scale(0.11 -0.11)">
      <defs>
       <path id="ArialMT-50" d="M 494 0 
L 494 4581 
L 2222 4581 
Q 2678 4581 2919 4538 
Q 3256 4481 3484 4323 
Q 3713 4166 3852 3881 
Q 3991 3597 3991 3256 
Q 3991 2672 3619 2267 
Q 3247 1863 2275 1863 
L 1100 1863 
L 1100 0 
L 494 0 
z
M 1100 2403 
L 2284 2403 
Q 2872 2403 3119 2622 
Q 3366 2841 3366 3238 
Q 3366 3525 3220 3729 
Q 3075 3934 2838 4000 
Q 2684 4041 2272 4041 
L 1100 4041 
L 1100 2403 
z
" transform="scale(0.015625)"/>
       <path id="ArialMT-64" d="M 2575 0 
L 2575 419 
Q 2259 -75 1647 -75 
Q 1250 -75 917 144 
Q 584 363 401 755 
Q 219 1147 219 1656 
Q 219 2153 384 2558 
Q 550 2963 881 3178 
Q 1213 3394 1622 3394 
Q 1922 3394 2156 3267 
Q 2391 3141 2538 2938 
L 2538 4581 
L 3097 4581 
L 3097 0 
L 2575 0 
z
M 797 1656 
Q 797 1019 1065 703 
Q 1334 388 1700 388 
Q 2069 388 2326 689 
Q 2584 991 2584 1609 
Q 2584 2291 2321 2609 
Q 2059 2928 1675 2928 
Q 1300 2928 1048 2622 
Q 797 2316 797 1656 
z
" transform="scale(0.015625)"/>
       <path id="ArialMT-6e" d="M 422 0 
L 422 3319 
L 928 3319 
L 928 2847 
Q 1294 3394 1984 3394 
Q 2284 3394 2536 3286 
Q 2788 3178 2913 3003 
Q 3038 2828 3088 2588 
Q 3119 2431 3119 2041 
L 3119 0 
L 2556 0 
L 2556 2019 
Q 2556 2363 2490 2533 
Q 2425 2703 2258 2804 
Q 2091 2906 1866 2906 
Q 1506 2906 1245 2678 
Q 984 2450 984 1813 
L 984 0 
L 422 0 
z
" transform="scale(0.015625)"/>
      </defs>
      <use xlink:href="#ArialMT-50"/>
      <use xlink:href="#ArialMT-72" transform="translate(66.699219 0)"/>
      <use xlink:href="#ArialMT-65" transform="translate(100 0)"/>
      <use xlink:href="#ArialMT-64" transform="translate(155.615234 0)"/>
      <use xlink:href="#ArialMT-69" transform="translate(211.230469 0)"/>
      <use xlink:href="#ArialMT-63" transform="translate(233.447266 0)"/>
      <use xlink:href="#ArialMT-74" transform="translate(283.447266 0)"/>
      <use xlink:href="#ArialMT-65" transform="translate(311.230469 0)"/>
      <use xlink:href="#ArialMT-64" transform="translate(366.845703 0)"/>
      <use xlink:href="#ArialMT-20" transform="translate(422.460938 0)"/>
      <use xlink:href="#ArialMT-28" transform="translate(450.244141 0)"/>
      <use xlink:href="#ArialMT-6e" transform="translate(483.544922 0)"/>
      <use xlink:href="#ArialMT-6f" transform="translate(539.160156 0)"/>
      <use xlink:href="#ArialMT-20" transform="translate(594.775391 0)"/>
      <use xlink:href="#ArialMT-41" transform="translate(617.058594 0)"/>
      <use xlink:href="#ArialMT-49" transform="translate(683.757812 0)"/>
      <use xlink:href="#ArialMT-29" transform="translate(711.541016 0)"/>
     </g>
    </g>
    <g id="patch_8">
     <path d="M 53.627969 67.310781 
L 75.627969 67.310781 
L 75.627969 59.610781 
L 53.627969 59.610781 
z
" style="fill: #16a34a; fill-opacity: 0.2; stroke: #16a34a; stroke-opacity: 0.2; stroke-linejoin: miter"/>
    </g>
    <g id="text_17">
     <!-- AI surplus -->
     <g style="fill: #262626" transform="translate(84.427969 67.310781) scale(0.11 -0.11)">
      <use xlink:href="#ArialMT-41"/>
      <use xlink:href="#ArialMT-49" transform="translate(66.699219 0)"/>
      <use xlink:href="#ArialMT-20" transform="translate(94.482422 0)"/>
      <use xlink:href="#ArialMT-73" transform="translate(122.265625 0)"/>
      <use xlink:href="#ArialMT-75" transform="translate(172.265625 0)"/>
      <use xlink:href="#ArialMT-72" transform="translate(227.880859 0)"/>
      <use xlink:href="#ArialMT-70" transform="translate(261.181641 0)"/>
      <use xlink:href="#ArialMT-6c" transform="translate(316.796875 0)"/>
      <use xlink:href="#ArialMT-75" transform="translate(339.013672 0)"/>
      <use xlink:href="#ArialMT-73" transform="translate(394.628906 0)"/>
     </g>
    </g>
    <g id="patch_9">
     <path d="M 53.627969 82.870625 
L 75.627969 82.870625 
L 75.627969 75.170625 
L 53.627969 75.170625 
z
" style="fill: #dc2626; fill-opacity: 0.2; stroke: #dc2626; stroke-opacity: 0.2; stroke-linejoin: miter"/>
    </g>
    <g id="text_18">
     <!-- AI deficit -->
     <g style="fill: #262626" transform="translate(84.427969 82.870625) scale(0.11 -0.11)">
      <defs>
       <path id="ArialMT-66" d="M 556 0 
L 556 2881 
L 59 2881 
L 59 3319 
L 556 3319 
L 556 3672 
Q 556 4006 616 4169 
Q 697 4388 901 4523 
Q 1106 4659 1475 4659 
Q 1713 4659 2000 4603 
L 1916 4113 
Q 1741 4144 1584 4144 
Q 1328 4144 1222 4034 
Q 1116 3925 1116 3625 
L 1116 3319 
L 1763 3319 
L 1763 2881 
L 1116 2881 
L 1116 0 
L 556 0 
z
" transform="scale(0.015625)"/>
      </defs>
      <use xlink:href="#ArialMT-41"/>
      <use xlink:href="#ArialMT-49" transform="translate(66.699219 0)"/>
      <use xlink:href="#ArialMT-20" transform="translate(94.482422 0)"/>
      <use xlink:href="#ArialMT-64" transform="translate(122.265625 0)"/>
      <use xlink:href="#ArialMT-65" transform="translate(177.880859 0)"/>
      <use xlink:href="#ArialMT-66" transform="translate(233.496094 0)"/>
      <use xlink:href="#ArialMT-69" transform="translate(261.279297 0)"/>
      <use xlink:href="#ArialMT-63" transform="translate(283.496094 0)"/>
      <use xlink:href="#ArialMT-69" transform="translate(333.496094 0)"/>
      <use xlink:href="#ArialMT-74" transform="translate(355.712891 0)"/>
     </g>
    </g>
   </g>
  </g>
 </g>
 <defs>
  <clipPath id="p337c9e1828">
   <rect x="49.227969" y="23.391562" width="1086.18" height="450.58"/>
  </clipPath>
 </defs>
</svg>
